<?xml version="1.0" encoding="UTF-8"?> <svg xmlns="http://www.w3.org/2000/svg" width="204" height="78" viewBox="0 0 204 78" fill="none"><g clip-path="url(#clip0_4_7001)"><path d="M15.165 54.8016C15.165 54.6955 15.165 54.5894 15.165 54.4832C15.165 47.8773 15.168 41.3776 15.165 34.7717C15.165 34.5472 15.2285 34.429 15.4371 34.3167C16.9636 33.4523 22.0845 30.5042 23.0608 29.9431C23.6956 29.5792 24.4453 29.5306 25.1829 29.6398C26.2893 29.8036 26.9271 30.5224 27.2082 31.5476C27.311 31.9237 27.3594 32.324 27.3654 32.7153C27.3866 33.795 27.3654 34.8748 27.3745 35.9545C27.3835 37.0616 27.0843 38.0989 26.6762 39.118C26.2047 40.2978 25.4005 41.2684 24.6509 42.2723C22.949 44.5441 21.2441 46.8157 19.5392 49.0845C18.1002 50.9952 15.1862 54.8047 15.1711 54.7986L15.165 54.8016Z" fill="#131313"></path><path d="M13.9254 21.4289C13.9133 21.1469 13.9224 20.8618 13.8831 20.5858C13.7984 20.0065 13.339 19.7426 12.7858 19.9397C12.6679 19.9822 12.559 20.0459 12.4502 20.1096C10.8935 21.0225 2.89184 25.7236 1.43783 26.5608C0.800006 26.9278 0.376798 27.4586 0.104737 28.1228C-0.0766342 28.5596 -0.125 29.0084 -0.125 29.4604V54.9316C-0.115934 55.3774 -0.115934 55.614 -0.115934 56.0629C-0.115934 56.2419 -0.0615182 56.351 0.10172 56.442C1.8006 57.3823 3.44201 58.3741 5.20433 59.381C5.85127 59.754 6.43169 60.0786 7.01512 60.4092C7.84029 60.8793 8.67466 61.2888 9.63595 61.0582C11.1534 60.6913 11.9212 59.8572 12.1147 58.2557C12.1449 58.0131 12.151 57.7644 12.151 57.5217C12.151 49.9453 12.151 42.3689 12.16 34.7924C12.16 34.5012 12.0875 34.3162 11.8215 34.1615C9.68734 32.9331 4.33378 29.7879 3.73222 29.4513C4.48495 29.0084 10.7302 25.4174 12.3626 24.4801C13.1153 24.0464 13.5868 23.4095 13.8075 22.5966C13.9103 22.2236 13.9345 21.435 13.9254 21.432V21.4289Z" fill="#131313"></path><path d="M35.9688 29.565H42.4361V31.1786C43.6363 30.026 45.8093 29.01 48.3489 29.01C54.586 29.01 59.6654 33.5322 59.6654 40.869C59.6654 48.206 54.583 52.6796 48.3489 52.6796C45.7608 52.6796 43.6848 51.7576 42.5301 50.7415V61.1235H35.9718V29.565H35.9688ZM47.7034 46.7743C50.7068 46.7743 52.9707 44.3752 52.9707 40.869C52.9707 37.3629 50.7068 34.9638 47.7034 34.9638C44.7001 34.9638 42.4361 37.3629 42.4361 40.869C42.4361 44.3752 44.7001 46.7743 47.7034 46.7743Z" fill="#131313"></path><path d="M62.269 40.869C62.269 34.0873 67.5818 29.01 74.1401 29.01C76.6798 29.01 79.1283 29.8866 80.4225 31.0876V29.565H87.0294V52.1731H80.4225V50.511C79.1283 51.5726 77.098 52.6796 74.1401 52.6796C67.5818 52.6796 62.269 47.6509 62.269 40.869ZM74.6492 46.5438C78.2526 46.5438 80.4225 43.7292 80.4225 40.7296C80.4225 37.7299 78.2526 35.1003 74.6492 35.1003C71.4155 35.1003 69.0607 37.6844 69.0607 40.7296C69.0607 43.7747 71.4155 46.5438 74.6492 46.5438Z" fill="#131313"></path><path d="M98.4333 52.1737L89.611 29.5657H96.9088L101.991 43.5448L107.258 29.5657H114.28L101.67 61.1242H94.7414L98.4359 52.1737H98.4333Z" fill="#131313"></path><path d="M114.504 40.869C114.504 34.0873 119.817 29.01 126.376 29.01C128.915 29.01 131.364 29.8866 132.658 31.0876V29.565H139.265V52.1731H132.658V50.511C131.364 51.5726 129.334 52.6796 126.376 52.6796C119.817 52.6796 114.504 47.6509 114.504 40.869ZM126.885 46.5438C130.488 46.5438 132.658 43.7292 132.658 40.7296C132.658 37.7299 130.488 35.1003 126.885 35.1003C123.651 35.1003 121.296 37.6844 121.296 40.7296C121.296 43.7747 123.651 46.5438 126.885 46.5438Z" fill="#131313"></path><path d="M151.058 50.5569V52.1705H144.5V19.875H151.152V30.994C152.307 29.978 154.292 29.0104 156.88 29.0104C163.117 29.0104 168.197 33.7176 168.197 40.8695C168.197 48.0213 163.114 52.68 156.88 52.68C154.34 52.68 152.261 51.7125 151.061 50.5569H151.058ZM156.231 46.7748C159.235 46.7748 161.499 44.3757 161.499 40.8695C161.499 37.3634 159.235 34.9642 156.231 34.9642C153.228 34.9642 151.058 37.3634 151.058 40.8695C151.058 44.3757 153.228 46.7748 156.231 46.7748Z" fill="#131313"></path><path d="M172.041 19.875H178.6V52.1735H172.041V19.875Z" fill="#131313"></path><path d="M182.374 41.0055C182.374 34.1782 186.946 29.01 193.505 29.01C200.803 29.01 204.406 34.8697 204.406 40.59L204.361 42.5282H189.026C189.395 44.8817 191.196 46.6803 194.108 46.6803C196.463 46.6803 198.266 45.8037 199.651 44.0507L203.994 48.1119C202.009 50.602 199.145 52.6796 194.293 52.6796C187.501 52.6796 182.374 48.1119 182.374 41.0055ZM197.478 38.1454C197.339 36.2528 195.814 34.7788 193.644 34.7788C191.196 34.7788 189.765 36.3014 189.35 38.1454H197.481H197.478Z" fill="#131313"></path></g><defs><clipPath id="clip0_4_7001"><rect width="204" height="78" fill="white"></rect></clipPath></defs></svg> 