<?xml version="1.0" encoding="UTF-8"?> <svg xmlns="http://www.w3.org/2000/svg" width="258" height="78" viewBox="0 0 258 78" fill="none"><g clip-path="url(#clip0_4_6996)"><path fill-rule="evenodd" clip-rule="evenodd" d="M114.718 12V55.5119H120.93V12H114.718ZM96.745 56.3627C104.505 56.3627 111.432 50.017 111.433 40.5295C111.432 31.1005 104.507 24.6947 96.745 24.6947C92.2694 24.6947 88.5672 26.2622 85.9994 28.9847V25.5386H79.7878V65.7917H85.9994V52.0727C88.5672 54.7952 92.2694 56.3627 96.745 56.3627ZM95.7258 30.2514C101.162 30.2514 105.401 34.2389 105.401 40.5261C105.401 46.8734 101.162 50.8008 95.7258 50.8008C90.8325 50.8008 85.9925 46.8133 85.9925 40.5261C85.9925 34.2389 90.8325 30.2514 95.7258 30.2514ZM154.963 42.0403H130.958C131.555 47.6022 135.554 50.9263 139.918 50.9263C143.201 50.9263 146.546 49.962 148.632 45.727L154.187 46.9336C151.738 53.2191 146.487 56.3627 139.918 56.3627C131.859 56.3627 124.814 50.0772 124.814 40.5845C124.814 31.097 131.799 24.6878 140.157 24.6878C148.514 24.6878 154.663 30.8547 154.963 39.8558V42.0403ZM131.141 37.5698H148.574C147.622 32.6766 144.217 30.2566 140.159 30.2566C136.099 30.2566 132.1 32.7367 131.141 37.5698ZM182.787 55.5136H189.059V12H182.787V28.9709C180.159 26.2502 176.517 24.6827 172.04 24.6827C164.34 24.6827 157.353 31.03 157.353 40.5192C157.353 50.0102 164.34 56.3575 172.04 56.3575C176.517 56.3575 180.159 54.7883 182.787 52.1277V55.5136ZM173.054 30.2514C178.013 30.2514 182.787 34.2389 182.787 40.5261C182.787 46.8734 178.008 50.8008 173.054 50.8008C167.678 50.8008 163.439 46.8133 163.439 40.5261C163.439 34.2389 167.678 30.2514 173.054 30.2514ZM223.632 52.8581C223.632 61.8059 217.539 67 208.282 67C201.178 67 196.225 64.2792 193.834 59.8087L198.913 56.0017C201.123 59.508 203.567 61.323 208.288 61.323C213.904 61.323 217.604 57.7566 217.604 51.9523V50.0153C215.334 52.4353 211.931 53.7622 207.395 53.7622C199.812 53.7622 192.887 47.5369 192.887 39.1992C192.887 30.8598 199.812 24.7548 207.395 24.7548C211.931 24.7548 215.334 26.0817 217.604 28.5017V25.5386H223.637V52.8581H223.632ZM217.599 39.1992C217.599 33.6356 213.242 30.0692 208.402 30.0692C203.084 30.0692 198.906 33.6356 198.906 39.1992C198.906 44.7611 203.084 48.3258 208.402 48.3258C213.235 48.3258 217.599 44.6992 217.599 39.1992ZM234.259 42.0403H258.263V39.8558C257.964 30.8547 251.812 24.6878 243.456 24.6878C235.099 24.6878 228.113 31.0953 228.113 40.5862C228.113 50.0755 235.159 56.3644 243.217 56.3644C249.786 56.3644 255.037 53.2191 257.488 46.9336L251.933 45.727C249.846 49.962 246.501 50.9263 243.217 50.9263C238.855 50.9263 234.855 47.6022 234.259 42.0403ZM251.873 37.5698H234.438C235.397 32.7367 239.396 30.2566 243.456 30.2566C247.516 30.2566 250.919 32.6766 251.873 37.5698Z" fill="#0D0D0D"></path><path fill-rule="evenodd" clip-rule="evenodd" d="M30.5267 27.4378V27.4447C30.5267 27.4963 30.5216 27.5478 30.5095 27.5994H44.44C44.5088 27.5994 44.5758 27.6097 44.6377 27.6286C44.6309 27.5929 44.6275 27.5567 44.6274 27.5203V20.9788C44.6264 20.8241 44.6869 20.6754 44.7955 20.5652C44.9041 20.455 45.0519 20.3923 45.2066 20.391H51.6691C51.7458 20.3914 51.8217 20.407 51.8925 20.4368C51.9632 20.4666 52.0273 20.51 52.0813 20.5646C52.1352 20.6191 52.1779 20.6838 52.2069 20.7549C52.2358 20.826 52.2505 20.902 52.25 20.9788V27.5203C52.2505 27.6747 52.1898 27.823 52.0813 27.9329C51.9728 28.0427 51.8252 28.1051 51.6708 28.1064H45.2083C45.1602 28.1067 45.1123 28.1009 45.0656 28.0893C45.0777 28.1408 45.0863 28.1958 45.0863 28.2525V42.3738C45.0863 42.4271 45.08 42.4801 45.0674 42.5319C45.1223 42.517 45.1789 42.5094 45.2358 42.5096H59.1886L59.2471 42.5113V38.2763C59.2471 38.0597 59.4189 37.8844 59.6338 37.8844H63.9427C64.1558 37.8844 64.3277 38.0597 64.3277 38.2763V42.6368C64.3277 42.8533 64.1558 43.0286 63.9427 43.0286H59.8211C59.8302 43.0727 59.8348 43.1177 59.8349 43.1627V57.2857C59.8349 57.6466 59.5461 57.9388 59.1886 57.9388H45.2375C45.1522 57.9383 45.0678 57.9211 44.9892 57.888C44.9105 57.855 44.8391 57.8067 44.7791 57.7461C44.7191 57.6854 44.6716 57.6135 44.6394 57.5345C44.6072 57.4555 44.5908 57.371 44.5913 57.2857V43.1627C44.5913 43.1094 44.5981 43.0561 44.6102 43.0063C44.5553 43.0212 44.4986 43.0287 44.4417 43.0286H30.4889C30.4974 43.0728 30.5015 43.1177 30.501 43.1627V57.2908C30.501 57.6518 30.2156 57.9457 29.8547 57.9457H0.646271C0.560887 57.9454 0.47639 57.9283 0.397636 57.8954C0.318881 57.8624 0.247423 57.8141 0.187368 57.7534C0.127313 57.6928 0.0798453 57.6208 0.0476938 57.5417C0.0155423 57.4626 -0.000659203 57.3779 2.05353e-05 57.2925V13.3166C2.05353e-05 12.9539 0.292208 12.66 0.646271 12.66H29.8805C30.2363 12.66 30.5267 12.9488 30.5267 13.3132V27.4361V27.4378ZM29.8547 42.5096C29.8455 42.4649 29.8409 42.4194 29.841 42.3738V28.2525C29.841 28.1993 29.8478 28.1477 29.8581 28.0978H15.9328C15.8475 28.0981 15.763 28.1152 15.6842 28.1482C15.6054 28.1811 15.534 28.2294 15.4739 28.2901C15.4139 28.3508 15.3664 28.4227 15.3343 28.5018C15.3021 28.5809 15.2859 28.6656 15.2866 28.751V41.8547C15.2866 42.2157 15.5719 42.5078 15.9328 42.5078L29.8547 42.5096Z" fill="#373737"></path></g><defs><clipPath id="clip0_4_6996"><rect width="258" height="78" fill="white"></rect></clipPath></defs></svg> 