<?xml version="1.0" encoding="UTF-8"?> <svg xmlns="http://www.w3.org/2000/svg" width="358" height="128" viewBox="0 0 358 128" fill="none"><path d="M60.6202 39.3364H70.667V90.6563H60.6202V86.0612C57.6607 89.8514 53.455 91.7467 48.0033 91.7467C42.7592 91.7467 38.268 89.7737 34.5296 85.8275C30.8432 81.8298 29 76.9491 29 71.1857C29 65.4225 30.8432 60.5678 34.5296 56.6218C38.268 52.6238 42.7592 50.6248 48.0033 50.6248C53.455 50.6248 57.6607 52.52 60.6202 56.3102V39.3364ZM42.0842 79.1296C44.1611 81.1547 46.7571 82.1671 49.8724 82.1671C52.9877 82.1671 55.5578 81.1547 57.5828 79.1296C59.6077 77.0528 60.6202 74.4048 60.6202 71.1857C60.6202 67.9666 59.6077 65.3446 57.5828 63.3196C55.5578 61.2428 52.9877 60.2043 49.8724 60.2043C46.7571 60.2043 44.1611 61.2428 42.0842 63.3196C40.0593 65.3446 39.0468 67.9666 39.0468 71.1857C39.0468 74.4048 40.0593 77.0528 42.0842 79.1296Z" fill="black"></path><path d="M88.3444 75.3135C89.6944 80.1941 93.3548 82.6342 99.3258 82.6342C103.168 82.6342 106.075 81.3363 108.048 78.7401L116.148 83.4132C112.306 88.9688 106.647 91.7466 99.1701 91.7466C92.7319 91.7466 87.5657 89.7996 83.6716 85.9054C79.7775 82.0113 77.8304 77.1048 77.8304 71.1856C77.8304 65.3185 79.7513 60.4379 83.5936 56.5438C87.4359 52.5978 92.3683 50.6248 98.3911 50.6248C104.103 50.6248 108.801 52.5978 112.488 56.5438C116.226 60.4898 118.096 65.3704 118.096 71.1856C118.096 72.4838 117.966 73.8595 117.706 75.3135H88.3444ZM88.1886 67.5252H108.048C107.477 64.8772 106.283 62.9042 104.466 61.6061C102.701 60.3081 100.676 59.6591 98.3911 59.6591C95.6913 59.6591 93.4587 60.36 91.6933 61.7619C89.9279 63.1119 88.7597 65.033 88.1886 67.5252Z" fill="black"></path><path d="M147.773 50.6248C153.017 50.6248 157.482 52.6238 161.169 56.6218C164.907 60.5678 166.776 65.4225 166.776 71.1857C166.776 76.9491 164.907 81.8298 161.169 85.8275C157.482 89.7737 153.017 91.7467 147.773 91.7467C142.321 91.7467 138.116 89.8514 135.156 86.0612V90.6563H125.109V39.3364H135.156V56.3102C138.116 52.52 142.321 50.6248 147.773 50.6248ZM138.193 79.1296C140.218 81.1547 142.788 82.1671 145.903 82.1671C149.019 82.1671 151.589 81.1547 153.614 79.1296C155.691 77.0528 156.729 74.4048 156.729 71.1857C156.729 67.9666 155.691 65.3446 153.614 63.3196C151.589 61.2428 149.019 60.2043 145.903 60.2043C142.788 60.2043 140.218 61.2428 138.193 63.3196C136.168 65.3446 135.156 67.9666 135.156 71.1857C135.156 74.4048 136.168 77.0528 138.193 79.1296Z" fill="black"></path><path d="M173.542 90.6563V37H183.588V90.6563H173.542Z" fill="black"></path><path d="M225.642 85.8274C221.644 89.7737 216.764 91.7466 211 91.7466C205.237 91.7466 200.356 89.7737 196.358 85.8274C192.412 81.8297 190.439 76.9491 190.439 71.1856C190.439 65.4224 192.412 60.5677 196.358 56.6217C200.356 52.6238 205.237 50.6248 211 50.6248C216.764 50.6248 221.644 52.6238 225.642 56.6217C229.64 60.5677 231.639 65.4224 231.639 71.1856C231.639 76.9491 229.64 81.8297 225.642 85.8274ZM203.446 78.8961C205.471 80.9209 207.989 81.9333 211 81.9333C214.012 81.9333 216.53 80.9209 218.555 78.8961C220.58 76.871 221.592 74.3011 221.592 71.1856C221.592 68.0704 220.58 65.5002 218.555 63.4753C216.53 61.4504 214.012 60.4379 211 60.4379C207.989 60.4379 205.471 61.4504 203.446 63.4753C201.473 65.5002 200.486 68.0704 200.486 71.1856C200.486 74.3011 201.473 76.871 203.446 78.8961Z" fill="black"></path><path d="M256.603 91.7466C250.736 91.7466 245.83 89.7737 241.884 85.8274C237.989 81.8815 236.042 77.0009 236.042 71.1856C236.042 65.3704 237.989 60.4898 241.884 56.5438C245.83 52.5978 250.736 50.6248 256.603 50.6248C260.394 50.6248 263.846 51.5334 266.962 53.3506C270.077 55.1679 272.439 57.6082 274.049 60.6716L265.404 65.7339C264.625 64.1243 263.431 62.8523 261.821 61.9177C260.264 60.9831 258.498 60.5158 256.525 60.5158C253.514 60.5158 251.022 61.5282 249.049 63.5532C247.076 65.5262 246.089 68.0704 246.089 71.1856C246.089 74.249 247.076 76.793 249.049 78.8181C251.022 80.7911 253.514 81.7776 256.525 81.7776C258.55 81.7776 260.342 81.3363 261.899 80.4537C263.509 79.519 264.703 78.247 265.482 76.6373L274.205 81.6218C272.491 84.6852 270.077 87.1516 266.962 89.0206C263.846 90.8378 260.394 91.7466 256.603 91.7466Z" fill="black"></path><path d="M314.143 90.6563H302.461L288.286 72.977V90.6563H278.239V39.3364H288.286V68.8493L301.682 51.7152H313.676L298.021 70.9522L314.143 90.6563Z" fill="black"></path></svg> 