<?xml version="1.0" encoding="UTF-8"?> <svg xmlns="http://www.w3.org/2000/svg" width="321" height="110" viewBox="0 0 321 110" fill="none"><path d="M79.0063 55.332V54.881C84.575 54.881 88.5158 50.822 88.5158 45.0057C88.5405 36.72 79.4408 31 68.8093 31C60.0313 31 53.6155 34.0855 49.122 38.1693L53.9593 51.746H54.7155C54.7155 51.746 60.2155 44.8627 67.4783 44.8627C73.0718 44.8627 77.997 48.424 77.4938 54.1907C74.422 52.0787 69.725 50.8 65.6468 50.8C56.3188 50.8 48.9158 55.5025 48.9158 63.9725C48.9158 70.0995 53.9593 76.199 62.1405 76.199C72.75 76.199 79.1218 66.7748 78.3655 57.8978H78.9843C80.0375 65.0203 77.3563 70.7155 73.9408 74.5627V75.297H89.6158V74.4445C89.5938 63.4198 82.9278 58.3295 79.1438 55.4393L79.0063 55.3347V55.332ZM69.0375 64.495C66.2655 64.495 64.1563 62.4765 64.1563 59.6028C64.1563 56.4458 66.6093 54.43 70.275 54.43C73.1405 54.43 76.1188 55.9012 76.9438 56.4237C76.072 61.668 72.8875 64.495 69.0375 64.495ZM215.016 53.979C215.016 66.2495 206.331 76.1495 192.238 76.1495C178.191 76.1495 169.459 66.2275 169.459 53.979C169.459 41.7305 178.281 31.6655 192.238 31.6655C205.988 31.6655 215.016 41.7058 215.016 53.979ZM202.069 53.979C202.069 48.4955 197.669 45.861 192.216 45.861C186.853 45.861 182.428 48.4955 182.428 53.979C182.428 59.4625 186.76 62.1685 192.216 62.1685C197.669 62.1685 202.069 59.4625 202.069 53.979ZM136.734 53.836C136.734 66.2495 130.409 76.1495 119.797 76.1495C112.853 76.1495 105.819 73.8698 104.925 59.248H104.1L105.613 69.5962V86H91.703V32.518H106.163L104.788 47.214H105.338C107.263 34.9408 113.953 31.6655 119.797 31.6655C130.478 31.6655 136.734 41.4198 136.734 53.836ZM123.303 53.55C123.303 48.0665 119.341 45.432 114.138 45.432C109.003 45.432 104.972 48.0665 104.972 53.55C104.972 59.1765 109.003 61.7395 114.138 61.7395C119.341 61.7395 123.303 59.1765 123.303 53.55ZM152.5 56.8252H151.813L154.288 32.518H139.622V75.2943H154.013V63.307C154.013 53.8828 156.9 48.2562 162.263 47.6155C164.05 47.4752 165.631 47.83 167.213 49.04H167.969V31.6655C158.963 31.6655 153.944 37.2893 152.5 56.828V56.8252ZM269.697 60.1033C264.678 60.1033 261.309 63.7332 261.309 68.1497C261.309 72.4947 264.609 76.1248 269.697 76.1248C274.853 76.1248 278.084 72.4947 278.084 68.1497C278.084 63.758 274.716 60.1033 269.697 60.1033ZM256.725 75.2695C257.528 72.2555 259.384 64.682 259.384 54.2622C259.384 42.561 255.372 31.6655 245.016 31.6655C236.741 31.6655 231.722 38.4305 230.072 56.828H229.385L231.86 32.518H217.194V75.2943H231.585V66.464C231.585 55.9727 232.753 48.259 238.553 48.259C242.769 48.259 245.703 51.8642 245.703 58.511C245.703 64.517 244.441 69.8822 242.15 74.6535V75.2943L256.725 75.2695Z" fill="black"></path></svg> 