<?xml version="1.0" encoding="UTF-8"?> <svg xmlns="http://www.w3.org/2000/svg" width="78" height="55" viewBox="0 0 78 55" fill="none"><path d="M13.9699 31.5755L17.0651 22.2437C17.1344 22.0358 17.1575 21.8973 17.1575 21.7818C17.1575 21.3891 16.9265 21.2967 15.864 21.2967H15.2634V20.7192H19.6983V21.2967H19.3287C18.3586 21.2967 17.9428 21.6432 17.6194 22.7288L13.069 36.4261H12.4916L6.6015 21.2967H5.1694V20.7192H11.8448V21.2967H9.99696L13.9699 31.5755Z" fill="black"></path><path d="M22.7242 21.2967H20.8763V20.7192H27.8058V21.2967H25.9579V35.5484H27.8058V36.1259H20.8763V35.5484H22.7242V21.2967Z" fill="black"></path><path d="M31.0387 21.2967H29.1908V20.7192H41.3405L41.687 24.646H41.0865C40.5321 22.0589 39.5158 21.2043 36.9749 21.2967H34.2724V28.0183H34.9192C36.9057 28.0645 37.7141 27.2561 37.691 25.2927H38.3147V31.5755H37.691C37.6217 29.2887 36.998 28.6189 34.873 28.5958H34.2724V35.5484H36.4206C39.6775 35.5946 40.8093 34.6476 41.5484 31.229H42.1721L41.8487 36.1259H29.1908V35.5484H31.0387V21.2967Z" fill="black"></path><path d="M51.8041 31.5755L54.8993 22.2437C54.9686 22.0358 54.9917 21.8973 54.9917 21.7818C54.9917 21.3891 54.7607 21.2967 53.6981 21.2967H53.0976V20.7192H57.5325V21.2967H57.1629C56.1928 21.2967 55.777 21.6432 55.4536 22.7288L50.9032 36.4261H50.3258L44.4357 21.2967H43.0036V20.7192H49.679V21.2967H47.8312L51.8041 31.5755Z" fill="black"></path><path d="M60.5584 21.2967H58.7105V20.7192H70.8603L71.2067 24.646H70.6062C70.0518 22.0589 69.0355 21.2043 66.4947 21.2967H63.7922V28.0183H64.4389C66.4254 28.0645 67.2338 27.2561 67.2107 25.2927H67.8344V31.5755H67.2107C67.1414 29.2887 66.5178 28.6189 64.3927 28.5958H63.7922V35.5484H65.9403C69.1972 35.5946 70.329 34.6476 71.0681 31.229H71.6918L71.3684 36.1259H58.7105V35.5484H60.5584V21.2967Z" fill="black"></path></svg> 