<?xml version="1.0" encoding="UTF-8"?> <svg xmlns="http://www.w3.org/2000/svg" width="145" height="99" viewBox="0 0 145 99" fill="none"><mask id="mask0_4_6973" style="mask-type:luminance" maskUnits="userSpaceOnUse" x="19" y="18" width="97" height="55"><path d="M115.36 18H19V73H115.36V18Z" fill="white"></path></mask><g mask="url(#mask0_4_6973)"><path d="M26.9925 45.1753C28.9911 45.1753 30.4722 43.4855 30.4722 38.6086V30.2877C30.4722 25.4126 28.9893 23.721 26.9925 23.721H26.4768V45.1753H26.9925ZM38.1434 33.8638V35.0344C38.1434 46.0211 33.0507 50.377 26.4768 50.377V72.4808H19V18.5211H26.2841C32.9882 18.5211 38.1434 22.8769 38.1434 33.8638Z" fill="black" fill-opacity="0.7"></path><path d="M48.5217 52.5861L47.1673 31.8473H46.5231L45.1046 52.5861H48.5217ZM52.3226 18.5211L57.1567 71.8295V72.479H49.744L48.9054 58.696H44.7156L43.8768 72.479H37.2386V71.8295L42.0102 18.5211H52.3226Z" fill="black" fill-opacity="0.7"></path><path d="M73.7858 18.5211V24.5668H68.3076V72.479H60.7024V24.5668H55.2223V18.5211H73.7858Z" fill="black" fill-opacity="0.7"></path><path d="M84.4211 18C90.738 18 93.8964 23.2016 93.8964 31.262V38.0232H86.9354C86.4839 36.0728 86.4197 33.7976 86.4197 31.5224V26.4511C86.4197 24.5667 85.7095 23.3961 84.4211 23.3961C83.0024 23.3961 82.2941 24.5667 82.2941 26.5814V64.4186C82.2941 66.4351 83.0024 67.6038 84.4211 67.6038C85.7095 67.6038 86.4197 66.4351 86.4197 64.5489V59.1527C86.4197 56.8776 86.4839 54.6024 86.9354 52.6521H93.8964V59.738C93.8964 67.8001 90.738 73 84.4211 73C77.7829 73 73.8501 67.6038 73.8501 56.4225V34.5792C73.8501 23.3979 77.7829 18.0018 84.4211 18.0018" fill="black" fill-opacity="0.7"></path><path d="M103.886 18.5211V42.1846H107.883V18.5211H115.36V72.479H107.883V48.2302H103.886V72.479H96.4108V18.5211H103.886Z" fill="black" fill-opacity="0.7"></path></g></svg> 