<?xml version="1.0" encoding="UTF-8"?> <svg xmlns="http://www.w3.org/2000/svg" width="288" height="78" viewBox="0 0 288 78" fill="none"><g clip-path="url(#clip0_3_6912)"><path d="M158.808 63.9913C158.063 63.9349 157.378 63.5389 156.92 62.9166C156.405 61.8418 156.062 60.6538 155.834 59.4658L154.518 53.1299C154.288 51.6025 153.659 50.1316 152.63 48.8871C151.658 47.6425 150.342 46.7374 148.912 46.2282C146.968 45.4363 144.851 44.9837 142.792 44.9271C145.71 44.814 148.57 44.022 151.086 42.5511C152.858 41.5894 154.346 40.1186 155.375 38.3083C156.233 36.781 156.691 35.0273 156.691 33.2737C156.863 30.0491 155.205 26.9943 152.401 25.3538C148.454 23.3172 143.994 22.4121 139.59 22.695H129.694C125.405 22.695 122.488 22.4121 120.371 22.4121V23.7132C121.401 23.6567 122.373 23.8829 123.288 24.2224C123.975 24.3355 124.489 24.9012 124.604 25.5235C124.833 26.6549 124.947 27.7863 124.89 28.9743V59.1264C124.947 60.2578 124.89 61.4458 124.604 62.5772C124.318 63.1429 123.86 63.5953 123.288 63.8782C122.373 64.2742 121.344 64.4439 120.371 64.3873V65.6886C123.574 65.4056 126.777 65.349 129.98 65.4056C133.984 65.4056 137.187 65.6886 139.303 65.6886V64.3873C138.274 64.4439 137.301 64.2176 136.387 63.8782C135.7 63.7652 135.186 63.1993 135.071 62.5772C134.843 61.4458 134.727 60.3142 134.785 59.1264V45.21H139.303C140.391 45.0968 141.477 45.4928 142.221 46.2848C142.964 47.1334 143.537 48.0951 143.822 49.1699C144.108 50.471 144.623 52.055 144.909 53.9219L145.995 59.9749C146.167 61.9549 147.14 63.7652 148.684 65.0096C150.342 66.141 152.287 66.7067 154.288 66.5936C155.834 66.6502 157.378 66.3673 158.808 65.8016C160.122 65.1793 161.324 64.2742 162.297 63.1429L161.496 62.6336C161.496 62.6336 159.951 64.0479 158.808 63.9913ZM137.415 44.1351H134.727V29.0874C134.671 28.0126 134.727 26.9377 135.014 25.9195C135.128 25.2972 135.528 24.6749 136.101 24.3355C136.844 23.9961 137.645 23.7698 138.502 23.8264C140.791 23.7132 142.964 24.6749 144.394 26.4852C145.824 28.8046 146.453 31.4634 146.281 34.1222C146.339 35.9325 146.053 37.6862 145.48 39.3833C145.023 40.7976 144.05 41.9854 142.792 42.834C141.19 43.7391 139.303 44.1917 137.415 44.1351Z" fill="#343434"></path><path d="M241.399 28.0122C242.829 28.0122 244.259 27.5596 245.403 26.7111C245.575 26.5414 245.747 26.3717 245.918 26.2019C247.576 24.2786 247.348 21.45 245.403 19.8095C244.259 18.9609 242.829 18.5084 241.399 18.5084C239.969 18.4518 238.539 18.9044 237.396 19.8095C237.224 19.9792 237.053 20.1489 236.881 20.3186C235.222 22.242 235.451 25.0706 237.396 26.7111C238.483 27.6728 239.913 28.1253 241.399 28.0122Z" fill="#343434"></path><path d="M246.434 33.8391C243.459 34.4048 240.371 34.6876 237.34 34.6311C236.253 34.6311 234.937 34.3482 233.623 34.3482V35.6493C234.765 35.5928 235.852 36.1019 236.539 36.9504C237.168 38.195 237.454 39.5527 237.34 40.9104V60.2009C237.397 61.106 237.34 62.0112 237.054 62.8597C236.768 63.4254 236.311 63.878 235.738 64.1607C234.937 64.3871 234.136 64.5003 233.335 64.4437V65.7447C237.625 65.462 240.543 65.462 241.858 65.462C243.174 65.462 246.148 65.462 250.152 65.7447V64.4437C249.351 64.5003 248.55 64.4437 247.749 64.1607C247.178 63.878 246.721 63.4254 246.434 62.8597C246.205 62.0112 246.091 61.106 246.148 60.2009L246.434 33.8391Z" fill="#343434"></path><path d="M286.241 64.2173C285.669 63.9345 285.211 63.4819 284.925 62.9162C284.696 62.0676 284.582 61.1625 284.64 60.2574V43.852C284.64 42.1549 284.468 40.4577 284.125 38.8172C283.781 37.7423 283.21 36.7806 282.523 35.9322C281.722 35.1968 280.865 34.5178 279.835 34.0652C278.52 33.7258 277.204 33.5562 275.832 33.5562C271.77 33.2168 267.938 35.2532 265.936 38.6475V33.7825C262.962 34.3482 259.874 34.6311 256.842 34.5745C255.755 34.5745 254.439 34.2915 253.125 34.2915V35.5928C254.268 35.5362 255.356 36.0452 256.041 36.8938C256.67 38.1383 256.956 39.496 256.842 40.8537V60.1442C256.9 61.0494 256.842 61.9545 256.556 62.8031C256.27 63.3688 255.813 63.8213 255.24 64.1042C254.439 64.3305 253.639 64.4436 252.838 64.387V65.6882C257.357 65.4053 260.045 65.4053 261.36 65.4053C262.676 65.4053 265.364 65.4053 269.081 65.6882V64.387C268.452 64.4436 267.823 64.387 267.194 64.1042C266.68 63.7648 266.337 63.3122 266.107 62.8031C265.879 61.9545 265.765 61.0494 265.822 60.1442V43.3428C265.822 42.0417 266.051 40.7972 266.623 39.6657C267.138 38.6475 267.823 37.7423 268.739 37.0069C269.711 36.4978 270.855 36.2149 271.941 36.2149C273.086 36.1585 274.172 36.6675 274.859 37.5161C275.488 38.6475 275.716 39.9486 275.66 41.1932V60.2008C275.716 61.1059 275.66 62.0111 275.374 62.8596C275.203 63.4253 274.801 63.8779 274.286 64.1608C274.001 64.4436 273.2 64.4436 272.399 64.4436V65.7447C276.403 65.4619 279.091 65.4619 280.407 65.4619C281.722 65.4619 284.41 65.4619 288.415 65.7447V64.4436C287.843 64.5567 287.042 64.5002 286.241 64.2173Z" fill="#343434"></path><path d="M178.313 33.5563C174.252 33.33 170.305 34.7443 167.331 37.5162C164.643 40.175 163.327 44.3613 163.327 50.1881C163.327 56.0147 164.643 60.2575 167.331 62.8598C170.248 65.6318 174.252 67.046 178.313 66.8197C182.373 67.046 186.32 65.5752 189.294 62.8598C191.982 60.201 193.298 56.0147 193.298 50.1881C193.298 44.3613 191.982 40.1185 189.294 37.5162C186.32 34.7443 182.373 33.33 178.313 33.5563ZM182.603 61.6152C181.516 63.9912 180.2 65.2923 178.313 65.2923C176.425 65.2923 175.109 64.2175 174.023 61.6152C172.764 57.8816 172.249 53.9216 172.421 49.9618C172.249 46.0018 172.764 42.0985 174.023 38.3082C175.109 35.9322 176.425 34.6311 178.313 34.6311C180.2 34.6311 181.516 35.9322 182.603 38.3082C183.861 42.0419 184.432 46.0018 184.204 49.9618C184.375 53.9216 183.861 57.825 182.603 61.6152Z" fill="#343434"></path><path d="M224.298 35.4231C222.582 34.1785 220.523 33.5562 218.408 33.5562C216.405 33.4997 214.461 34.0654 212.802 35.1402C211.258 35.9888 210.056 37.2898 209.313 38.8172V18.4519C206.339 19.0176 203.25 19.3005 200.219 19.2439C199.132 19.2439 197.816 18.961 196.5 18.961V20.2622C197.645 20.2056 198.731 20.7147 199.418 21.5633C200.047 22.8078 200.333 24.1655 200.219 25.5232V63.0294C200.219 64.2174 199.989 65.3488 199.704 66.4802L200.505 66.9893C201.363 66.3105 202.392 65.7448 203.422 65.4053C204.737 65.1225 206.053 64.8962 207.425 64.8962H208.512C210.515 66.3105 212.973 67.1025 215.432 66.9893C217.949 67.0459 220.466 66.4236 222.64 65.1225C224.871 63.7082 226.643 61.6718 227.73 59.2958C229.103 56.1279 229.732 52.677 229.617 49.2262C229.789 46.2846 229.331 43.2863 228.302 40.5143C227.501 38.5909 226.129 36.7808 224.298 35.4231ZM220.295 50.2445C220.295 60.5404 218.178 65.5751 213.603 65.5751C211.943 65.5751 210.343 65.0093 209.085 63.9911V41.476C209.313 39.9486 210.056 38.5345 211.2 37.5162C212.287 36.6675 213.603 36.2151 214.919 36.2151C216.806 36.3282 218.408 37.5728 218.921 39.3829C219.952 42.8903 220.409 46.5674 220.295 50.2445Z" fill="#343434"></path><path d="M91.1448 12.0028C83.7092 11.8331 76.7885 19.357 76.7885 19.357L33.3191 37.4029C33.3191 37.4029 46.4172 45.832 60.945 45.436C75.4729 45.0966 90.0008 35.9887 90.0008 35.9887C87.5986 38.1384 84.9675 40.0618 82.2221 41.7589C77.6465 44.5874 70.8971 48.4341 62.375 48.9434C55.6829 49.4525 48.9909 48.4341 42.7566 45.9451C38.524 44.5309 37.0941 45.0966 37.0941 45.0966C37.0941 45.0966 2.31871 61.5585 0.888795 62.2374C-0.541116 62.9162 -0.197937 65.575 1.57515 64.6699C3.40544 63.8214 22.3375 55.958 25.8837 54.7135C29.4298 53.4689 34.7491 53.2992 43.9577 57.146C50.8212 59.6917 58.028 61.2757 65.3491 61.898L68.7237 66.6499H71.9267C71.9267 66.6499 71.0689 65.5751 69.8104 64.2174C68.5521 62.8031 70.1537 61.0494 70.1537 61.0494C70.1537 61.0494 91.2019 54.9398 98.4658 47.5857C105.73 40.2315 103.27 31.2933 103.042 27.4465C102.698 23.2603 110.134 20.7713 110.134 20.7713L103.213 17.6033C100.125 14.1525 95.7777 12.1725 91.1448 12.0028ZM97.3791 21.6198C95.9492 21.6764 94.7481 20.545 94.7481 19.1873C94.7481 17.7164 95.9492 16.585 97.3791 16.585C98.8091 16.585 100.01 17.773 100.01 19.1873C99.953 20.6015 98.8091 21.6764 97.3791 21.6198Z" fill="#343434"></path></g><defs><clipPath id="clip0_3_6912"><rect width="288" height="78" fill="white"></rect></clipPath></defs></svg> 