<?xml version="1.0" encoding="UTF-8"?> <svg xmlns="http://www.w3.org/2000/svg" width="251" height="98" viewBox="0 0 251 98" fill="none"><path fill-rule="evenodd" clip-rule="evenodd" d="M140.976 37.0795C140.977 55.1237 140.973 54.8282 141.22 56.7257C141.567 59.3934 142.345 61.8783 143.477 63.934C145.27 67.1915 148.114 69.6285 151.843 71.1036C152.986 71.5559 154.912 72.0868 156.321 72.3378C158.135 72.6614 159.704 72.7969 162.178 72.8449L164.021 72.8805V67.4184V61.9564L161.604 61.9234C158.677 61.8838 158.083 61.8183 156.758 61.3884C154.303 60.5926 152.689 58.7831 152.013 56.0703C151.704 54.8326 151.711 55.0029 151.693 48.1928L151.676 41.8991H157.848H164.021V36.4108V30.9225H157.85H151.68L151.666 25.4752L151.652 20.0279L146.314 20.0139L140.975 20L140.976 37.0795ZM27.3873 30.9589C27.3873 30.9906 28.6327 34.5596 29.0802 35.8101C29.1662 36.0503 29.7928 37.832 30.4727 39.7692C31.1526 41.7066 31.7793 43.4883 31.8653 43.7285C31.9513 43.9688 32.5043 45.5413 33.0941 47.2235C33.6839 48.9054 34.2368 50.4784 34.3228 50.7186C34.4087 50.9588 35.0354 52.7404 35.7152 54.6777C36.3951 56.615 37.0218 58.3966 37.1078 58.6371C37.1939 58.8773 37.7468 60.4499 38.3366 62.132C38.9265 63.8139 39.4793 65.3867 39.5651 65.6271C39.7149 66.046 40.0449 66.9858 41.4588 71.0189L42.1046 72.8609L47.6832 72.8618L53.2616 72.8627L53.3155 72.7124C53.345 72.6299 54.5902 69.0974 56.0825 64.8624C57.5745 60.6274 58.8675 56.9596 58.9555 56.7118C59.0437 56.4641 59.1876 56.0587 59.2758 55.8107C59.364 55.563 59.8205 54.2668 60.2902 52.9303C60.7601 51.5935 61.2184 50.2914 61.309 50.0359C61.3997 49.7807 61.5475 49.3627 61.6377 49.1075C61.7279 48.8521 61.8711 48.4467 61.9563 48.2064C62.0414 47.9662 62.4218 46.8849 62.8019 45.8038C63.1819 44.7223 63.5647 43.635 63.6522 43.3873C63.74 43.1394 63.8857 42.7278 63.9756 42.4723C64.0658 42.2171 64.2115 41.8056 64.2993 41.5576C64.3868 41.3099 64.8435 40.0136 65.3134 38.6771C66.1268 36.3644 66.2577 35.9931 66.6427 34.909C67.284 33.1025 68.0173 30.9976 68.017 30.9635C68.0168 30.9409 64.8611 30.9225 61.0041 30.9225H53.9912L53.8792 31.4276C53.5386 32.9629 48.6037 55.29 48.1038 57.5558C47.778 59.0337 47.4964 60.2255 47.4783 60.2043C47.4601 60.1832 47.3811 59.8466 47.3027 59.4561C47.1778 58.8337 46.8951 57.4689 45.7299 51.8652C45.58 51.1445 45.4354 50.4443 45.4085 50.309C45.3816 50.1739 45.2368 49.4734 45.0869 48.7525C44.9369 48.0317 44.6024 46.4222 44.3436 45.1757C44.0848 43.9292 43.7503 42.3197 43.6003 41.5986C43.4503 40.8779 43.3057 40.1775 43.2789 40.0423C43.2521 39.9072 43.1294 39.3174 43.0064 38.7317C42.8832 38.146 42.7603 37.5562 42.7331 37.4211C42.7059 37.2859 42.5585 36.5732 42.4056 35.8374C42.1109 34.4186 41.9257 33.5256 41.5962 31.9328L41.3927 30.9498L34.39 30.9359C30.5385 30.9283 27.3873 30.9386 27.3873 30.9589ZM86.9663 30.9544C81.6225 31.2417 77.4412 32.8579 74.5433 35.7562C71.8607 38.4391 70.2538 42.1089 69.6294 46.9779C69.2913 49.6157 69.2911 53.6703 69.629 56.3013C70.6584 64.3113 74.4173 69.4201 80.8866 71.6006C83.2925 72.4115 85.9044 72.82 88.6867 72.8205C93.372 72.8209 97.3179 71.7167 100.269 69.5794C102.835 67.7213 104.622 65.269 105.951 61.7793C106.082 61.435 106.189 61.1217 106.189 61.083C106.189 61.0258 105.161 61.0124 100.761 61.0124H95.3338L94.8498 61.4278C93.5927 62.5073 92.0837 63.3011 90.6159 63.6553C89.3586 63.9586 87.7513 63.9815 86.4445 63.7142C83.1205 63.0342 81.0853 60.5889 80.4231 56.4797C80.3628 56.1044 80.2983 55.6497 80.2801 55.4695C80.262 55.2893 80.2332 55.0251 80.2158 54.8825L80.1846 54.6232H93.7282H107.272L107.311 54.2085C107.377 53.5073 107.299 49.1731 107.204 48.2612C106.824 44.6011 106.14 42.0015 104.91 39.5508C103.389 36.5193 101.247 34.3701 98.298 32.9161C96.2428 31.9029 94.2751 31.3664 91.4717 31.0549C90.7983 30.98 87.7526 30.9121 86.9663 30.9544ZM132.565 30.9592C130.886 30.9915 128.842 31.2089 127.214 31.528C123.902 32.1776 121.257 33.3083 118.94 35.0651C118.232 35.6022 116.761 37.0753 116.217 37.7918C114.206 40.4419 112.993 43.6381 112.47 47.6712C112.205 49.711 112.197 50.0956 112.197 61.8453L112.196 72.8627H117.547H122.897L122.915 61.1899C122.934 48.9146 122.925 49.352 123.18 48.0973C123.774 45.1658 125.43 43.2454 128.121 42.3663C129.321 41.9742 130.085 41.8991 132.875 41.8991H135.241V36.4108V30.9225L134.245 30.9343C133.697 30.9408 132.941 30.952 132.565 30.9592ZM187.039 30.9572C185.328 31.0006 183.393 31.2519 181.818 31.6353C179.371 32.2311 177.097 33.3151 175.401 34.6934C172.183 37.3101 170.184 41.3036 169.43 46.6229C169.17 48.4634 169.129 49.1738 169.128 51.8927C169.127 54.4683 169.149 54.9446 169.349 56.5891C170.377 65.0377 174.458 70.2271 181.523 72.072C183.627 72.6214 185.415 72.8242 188.131 72.822C190.475 72.8198 192.027 72.6689 193.881 72.2625C201.277 70.6414 205.624 65.5726 206.832 57.1626C207.094 55.3342 207.132 54.6722 207.132 51.92C207.132 49.1672 207.097 48.5615 206.829 46.6501C205.961 40.4584 203.36 36.0369 199.102 33.5148C196.015 31.6859 191.986 30.8316 187.039 30.9572ZM87.236 39.305C83.4318 39.7661 81.1906 42.3353 80.3879 47.1553L80.3538 47.3601H88.2518H96.1497L96.1196 47.2098C96.1033 47.1271 96.0505 46.814 96.0024 46.5135C95.5195 43.4975 94.2578 41.3389 92.3149 40.2042C90.9696 39.4186 89.0715 39.0824 87.236 39.305ZM187.23 39.909C186.69 39.9686 186.122 40.0656 185.758 40.1608C182.788 40.9371 180.894 43.3633 180.16 47.3326C179.672 49.9688 179.663 53.4814 180.137 56.1196C180.749 59.5294 182.154 61.824 184.309 62.9339C185.402 63.4964 186.51 63.7402 187.981 63.7419C190.241 63.7448 191.845 63.1341 193.214 61.7505C194.262 60.6901 194.995 59.2755 195.504 57.3294C196.169 54.7873 196.35 51.2389 195.967 48.2544C195.471 44.3923 194.116 41.9305 191.817 40.7113C190.8 40.172 189.815 39.9445 188.35 39.9098C187.839 39.8978 187.335 39.8974 187.23 39.909Z" fill="url(#paint0_linear_4_6993)"></path><defs><linearGradient id="paint0_linear_4_6993" x1="27.3873" y1="72.8805" x2="207.132" y2="72.8805" gradientUnits="userSpaceOnUse"><stop stop-color="#676767"></stop><stop offset="1" stop-color="#838383"></stop></linearGradient></defs></svg> 