<?xml version="1.0" encoding="UTF-8"?> <svg xmlns="http://www.w3.org/2000/svg" width="243" height="114" viewBox="0 0 243 114" fill="none"><path d="M88.8549 64.8271C89.0798 67.8114 91.2539 70.5661 95.6062 70.5661C98.9054 70.5661 100.481 68.8075 100.481 66.8195C100.481 65.1348 99.3554 63.7618 96.5063 63.1468L91.6319 61.9989C84.5069 60.3921 81.2841 56.0305 81.2841 50.7552C81.2841 44.0243 87.1352 38.4371 95.0838 38.4371C105.585 38.4371 109.109 45.2459 109.559 49.2999L101.232 51.2142C100.931 48.9966 99.3554 46.1639 95.156 46.1639C92.532 46.1639 90.4301 47.7709 90.4301 49.9105C90.4301 51.7469 91.7804 52.8948 93.8057 53.2758L99.0541 54.4235C106.328 55.9525 110.005 60.4658 110.005 65.9748C110.005 72.095 105.355 78.3664 95.6827 78.3664C84.5833 78.3664 80.7577 71.0208 80.3074 66.7371L88.8549 64.8228V64.8271Z" fill="#4B4B4B"></path><path d="M126.893 55.5715L135.967 54.1941C138.069 53.8865 138.744 52.8168 138.744 51.5175C138.744 48.8406 136.718 46.6232 132.519 46.6232C128.32 46.6232 125.768 49.4556 125.471 52.7432L116.622 50.8288C117.22 44.9382 122.545 38.4371 132.447 38.4371C144.145 38.4371 148.497 45.1679 148.497 52.7432V71.2548C148.497 73.2427 148.722 75.9194 148.947 77.2231H139.797C139.572 76.227 139.423 74.1652 139.423 72.7101C137.546 75.6941 134.022 78.2928 128.549 78.2928C120.672 78.2928 115.874 72.8615 115.874 66.9711C115.874 60.2405 120.749 56.4895 126.897 55.5715H126.893ZM138.744 61.9989V60.3141L130.417 61.6134C127.865 61.9945 125.844 63.4498 125.844 66.3561C125.844 68.5737 127.419 70.7177 130.642 70.7177C134.842 70.7177 138.744 68.6517 138.744 61.9945V61.9989Z" fill="#4B4B4B"></path><path d="M168.305 35.453V39.5849H176.628V48.308H168.305V77.2232H158.255V48.3036H152.106V39.5806H158.255V35.297C158.255 26.8036 163.503 21.2986 171.681 21.2986C173.783 21.2986 175.804 21.6797 176.632 22.0652V30.6324C176.105 30.4807 175.133 30.2512 173.481 30.2512C171.231 30.2512 168.305 31.2474 168.305 35.453Z" fill="#4B4B4B"></path><path d="M190.266 20.9175C193.714 20.9175 196.415 23.7501 196.415 27.267C196.415 30.784 193.714 33.465 190.266 33.465C186.819 33.465 184.118 30.6324 184.118 27.267C184.118 23.9017 186.895 20.9175 190.266 20.9175ZM185.316 77.2189V39.585H195.29V77.2232H185.316V77.2189Z" fill="#4B4B4B"></path><path d="M55.9286 53.0247C57.8944 55.4284 57.5209 59.0319 55.2534 61.1414C51.3215 64.8056 43.0799 72.4803 39.717 75.6162C39.0504 76.24 39.3179 77.3746 40.1926 77.6086C44.4047 78.7347 49.0498 78.7694 53.8224 77.3921C61.6693 75.1312 67.9408 68.9636 70.3483 61.0158C73.087 51.9591 71.0192 43.2924 66.1234 37.0251C65.7115 36.4967 64.943 36.4361 64.4546 36.8909L48.3451 51.8986C48.3451 51.8986 48.3451 51.9462 48.3706 51.9287C50.7398 50.2873 54.0221 50.6858 55.9329 53.0203L55.9286 53.0247Z" fill="#4B4B4B"></path><path d="M41.8615 55.9914C40.2225 56.0261 38.5793 55.3374 37.4201 53.9557C35.4117 51.5563 35.7514 47.9267 38.0358 45.7958L54.5913 30.3724C55.1731 29.831 54.9522 28.8608 54.2049 28.6139C51.6402 27.7737 48.9016 27.3449 46.0524 27.4012C32.9447 27.6654 22.1342 38.4024 21.5567 51.7641C21.2595 58.6291 23.6203 64.9268 27.6796 69.6781C28.0575 70.1199 28.7156 70.1632 29.1402 69.769L45.2243 54.7832C44.2309 55.5671 43.0504 55.9697 41.8615 55.9914Z" fill="#4B4B4B"></path></svg> 