<?xml version="1.0" encoding="UTF-8"?> <svg xmlns="http://www.w3.org/2000/svg" width="160" height="78" viewBox="0 0 160 78" fill="none"><g clip-path="url(#clip0_3_6930)"><path d="M45.2856 47.4404H32.1292L42.7499 36.1631L39.9965 33.2389C38.4862 31.6348 37.2121 30.3159 37.18 30.3159C37.1479 30.3159 34.7417 32.839 31.8461 35.9294L26.5593 41.5439V25.6042H18.6771V41.4763L13.4223 35.8961C10.5279 32.8219 8.13542 30.3159 8.10448 30.3159C8.0724 30.3159 6.81427 31.6359 5.28802 33.2389L2.53458 36.1631L13.1553 47.4404H0V55.7935H45.2856V47.4404ZM65.5027 56.5417C71.8311 56.5417 76.2185 53.1627 76.4958 47.0073H69.3825C69.0594 49.1362 67.721 50.2935 65.5497 50.2935C64.1174 50.2935 62.9624 49.692 62.1775 48.5805C61.4843 47.5619 61.1153 46.1742 61.1153 44.4612C61.1153 42.6565 61.5313 41.3136 62.2233 40.2491C63.0552 39.0919 64.256 38.4445 65.78 38.4445C67.9972 38.4445 69.4295 39.6017 69.7984 41.7765H76.8648C76.6345 35.667 72.1543 32.1962 65.78 32.1962C61.5313 32.1962 58.1132 33.7695 56.0805 36.6856C54.6952 38.6759 53.9103 41.3148 53.9103 44.4612C53.9103 47.5619 54.6494 50.1079 56.0347 52.0982C58.0204 55.0144 61.3479 56.5417 65.5027 56.5417ZM91.6323 56.5417C96.0208 56.5417 99.6222 54.7371 101.748 51.6353C103.086 49.645 103.825 47.1917 103.825 44.3684C103.825 41.5451 103.086 39.0919 101.747 37.1015C99.6222 34.0009 96.0197 32.1962 91.6323 32.1962C87.2438 32.1962 83.6882 34.0009 81.5627 37.1015C80.2232 39.0919 79.4842 41.5451 79.4842 44.3684C79.4842 47.1917 80.2232 49.645 81.5627 51.6353C83.6882 54.7371 87.2438 56.5417 91.6323 56.5417ZM86.6903 44.3684C86.6903 42.7952 87.1051 41.4523 87.7525 40.4806C88.6302 39.1858 90.0155 38.4445 91.6323 38.4445C93.2938 38.4445 94.6344 39.1847 95.5121 40.4806C96.2042 41.4523 96.5743 42.7952 96.5743 44.3684C96.5743 45.9428 96.2042 47.2846 95.5121 48.2562C94.6344 49.5522 93.2949 50.2935 91.6323 50.2935C90.0155 50.2935 88.6302 49.5522 87.7525 48.2562C87.1051 47.2846 86.6903 45.9416 86.6903 44.3684ZM106.652 55.8474H113.811V43.4426C113.811 40.3878 114.873 38.8134 116.674 38.8134C118.291 38.8134 119.077 39.7874 119.077 42.2395V45.2942H126.374V39.9249C126.374 34.9726 124.295 32.1962 120.231 32.1962C116.537 32.1962 114.181 34.3252 112.657 39.5089H111.687L113.719 32.8895H106.652V55.8474ZM135.349 56.5417C139.505 56.5417 141.908 54.4128 143.155 49.7836H144.078L142.416 55.8474H149.436V41.0822C149.436 35.2499 145.741 32.1962 138.905 32.1962C128.004 32.1962 127.913 40.2491 127.913 41.0363V41.175H135.164V41.0363C135.164 40.7121 135.211 37.8429 138.674 37.8429C140.983 37.8429 142.231 39.0002 142.231 41.0822V42.3311L136.457 42.841C133.64 43.0725 131.515 43.9525 130.13 45.3412C128.975 46.4985 128.375 48.0717 128.375 50.0162C128.375 51.9137 129.021 53.4411 130.176 54.5973C131.377 55.8474 133.224 56.5417 135.349 56.5417ZM135.764 49.4147C135.764 48.7661 135.996 48.2104 136.364 47.8403C136.919 47.2846 137.704 46.9603 138.813 46.8216L142.231 46.4057V46.5432C142.231 48.0717 141.261 51.5425 138.028 51.5425C137.289 51.5425 136.689 51.311 136.319 50.9409C135.95 50.5708 135.764 50.0621 135.764 49.4135V49.4147ZM152.416 55.8474H159.576V25.6042H152.416V55.8474Z" fill="#0D0D0D" fill-opacity="0.97"></path></g><defs><clipPath id="clip0_3_6930"><rect width="160" height="78" fill="white"></rect></clipPath></defs></svg> 