<?xml version="1.0" encoding="UTF-8"?> <svg xmlns="http://www.w3.org/2000/svg" width="382" height="134" viewBox="0 0 382 134" fill="none"><path d="M61.5627 61.512L57.1513 87.096H44L53.4015 33H66.5492L62.21 57.9264L85.1424 33H100.217L75.6759 59.5575L91.7923 87.1108H75.7554L61.5627 61.512Z" fill="#2F2F2F"></path><path d="M138.178 76.7068C136.749 79.235 134.825 81.4391 132.526 83.1836C130.205 84.9059 127.577 86.1536 124.788 86.8574C121.654 87.6439 118.434 88.0266 115.206 87.9961C112.095 88.0433 108.993 87.6602 105.985 86.8574C103.309 86.0957 101.139 84.8711 99.4761 83.1836C97.7637 81.3985 96.5936 79.1498 96.106 76.7068C95.5179 74.0739 95.5444 70.9108 96.1856 67.2175C96.8269 63.5241 97.8959 60.3598 99.3931 57.7245C100.795 55.1992 102.709 53.0053 105.009 51.288C107.342 49.5874 109.966 48.3417 112.747 47.6143C115.877 46.8006 119.098 46.4041 122.329 46.435C125.442 46.3872 128.546 46.7842 131.55 47.6143C134.221 48.4054 136.399 49.6299 138.084 51.288C139.822 53.044 141.008 55.2837 141.494 57.7245C142.08 60.3573 142.053 63.5217 141.414 67.2175C140.775 70.9133 139.696 74.0764 138.178 76.7068ZM128.277 67.2175C128.863 63.6319 128.542 60.9377 127.315 59.1351C126.088 57.3326 123.869 56.4387 120.658 56.4532C114.299 56.4532 110.53 60.0388 109.351 67.2101C108.067 74.3764 110.579 77.9608 116.891 77.9631C123.202 77.9657 126.997 74.3836 128.277 67.2175Z" fill="#2F2F2F"></path><path d="M151.532 86.4017C150.162 86.064 148.934 85.2879 148.032 84.1879C147.129 83.0879 146.597 81.7221 146.516 80.2923C146.351 78.3157 146.473 76.3255 146.878 74.3849L154.11 33H167.087L159.95 73.7198C159.736 75.0204 159.856 75.9462 160.311 76.4899C160.767 77.0336 161.635 77.3019 162.915 77.3019H165.963L164.278 87.0813H157.223C155.303 87.1351 153.387 86.9063 151.532 86.4017Z" fill="#2F2F2F"></path><path d="M175.585 86.4017C174.212 86.0675 172.982 85.2928 172.076 84.1924C171.171 83.0918 170.639 81.7243 170.559 80.2923C170.39 78.3159 170.512 76.3249 170.92 74.3849L178.152 33H191.141L184.006 73.7198C183.79 75.0204 183.913 75.9462 184.368 76.4899C184.824 77.0336 185.692 77.3019 186.975 77.3019H190.023L188.338 87.0813H181.276C179.357 87.1347 177.44 86.9057 175.585 86.4017Z" fill="#2F2F2F"></path><path d="M196.793 82.0042C194.042 78.6071 193.227 73.6781 194.348 67.2174C195.419 60.7516 197.93 55.8226 201.884 52.4304C205.837 49.0383 210.996 47.3411 217.36 47.3386H234.041L232.276 57.1145H217.523C214.63 57.1145 212.532 57.5761 211.228 58.4995C209.913 59.4302 208.94 60.7779 208.461 62.3312H231.072L229.39 71.9454H206.776C206.699 72.6547 206.784 73.3727 207.025 74.0431C207.266 74.7135 207.656 75.3181 208.165 75.8102C209.211 76.8169 211.176 77.3189 214.059 77.3164H229.137L227.456 87.096H210.461C204.109 87.096 199.553 85.3986 196.793 82.0042Z" fill="#2F2F2F"></path><path d="M266.917 63.9587C267.288 61.6785 267.06 60.0216 266.233 58.988C265.406 57.9546 263.87 57.4378 261.623 57.4378H253.444L248.301 87.096H235.324L242.22 47.3386H266.448C272.168 47.3386 276.096 48.655 278.235 51.2879C280.372 53.9208 280.934 58.1444 279.921 63.9587L275.909 87.1034H262.908L266.917 63.9587Z" fill="#2F2F2F"></path><path d="M327.578 76.7068C326.146 79.2342 324.223 81.4384 321.923 83.1836C319.603 84.9059 316.975 86.1536 314.186 86.8574C311.051 87.6441 307.831 88.0268 304.602 87.9961C301.492 88.0433 298.391 87.6602 295.381 86.8574C292.708 86.0957 290.539 84.8711 288.874 83.1836C287.161 81.3985 285.99 79.1498 285.503 76.7068C284.918 74.0739 284.945 70.9108 285.586 67.2175C286.228 63.5241 287.298 60.3598 288.801 57.7245C290.202 55.1994 292.115 53.0055 294.413 51.288C296.747 49.5874 299.371 48.3417 302.15 47.6143C305.281 46.8009 308.503 46.4045 311.734 46.435C314.846 46.3872 317.949 46.7842 320.954 47.6143C323.398 48.2744 325.643 49.5362 327.492 51.288C329.228 53.0442 330.414 55.2841 330.898 57.7245C331.487 60.3573 331.459 63.5217 330.819 67.2175C330.177 70.9133 329.096 74.0764 327.578 76.7068ZM317.674 67.2175C318.265 63.6319 317.945 60.9377 316.712 59.1351C315.48 57.3326 313.262 56.4387 310.055 56.4532C303.696 56.4532 299.927 60.0388 298.748 67.2101C297.467 74.3764 299.982 77.9608 306.287 77.9631C312.594 77.9657 316.389 74.3836 317.674 67.2175Z" fill="#2F2F2F"></path><path d="M340.733 87.0961C345.003 87.0961 348.464 83.5796 348.464 79.2417C348.464 74.9037 345.003 71.3871 340.733 71.3871C336.464 71.3871 333.001 74.9037 333.001 79.2417C333.001 83.5796 336.464 87.0961 340.733 87.0961Z" fill="#868686"></path></svg> 