<?xml version="1.0" encoding="UTF-8"?> <svg xmlns="http://www.w3.org/2000/svg" width="255" height="112" viewBox="0 0 255 112" fill="none"><path d="M44.695 66.6125C46.585 66.6125 48.855 66.21 51.5 65.4025V73.24C48.8075 74.415 45.5 75 41.575 75C37.255 75 34.105 73.935 32.1325 71.8075C30.16 69.6775 29.175 66.485 29.175 62.2275V43.62H24V39.17L29.9525 35.645L33.075 27.5H39.985V35.715H51.0775V43.62H39.9825V62.2275C39.9825 63.7225 40.415 64.8275 41.275 65.5425C42.1375 66.255 43.2775 66.6125 44.695 66.6125ZM83.4875 74.3125L81.27 69.075H80.97C79.0375 71.3 77.05 72.8475 75.0075 73.7075C72.9625 74.57 70.3 75 67.015 75C62.9775 75 59.7975 73.9425 57.48 71.83C55.16 69.7175 54 66.7075 54 62.805C54 58.715 55.56 55.7 58.6825 53.76C61.805 51.82 66.5125 50.745 72.8075 50.5375L80.1025 50.3325V48.6425C80.1025 44.7375 77.9225 42.7875 73.5575 42.7875C70.1975 42.7875 66.25 43.7175 61.71 45.5775L57.91 38.4775C62.755 36.1625 68.12 35 74.0125 35C79.655 35 83.98 36.125 86.9875 38.375C89.9975 40.625 91.5 44.05 91.5 48.645V74.3125H83.4875ZM80.1025 56.4625L75.665 56.6025C72.33 56.695 69.8475 57.245 68.2175 58.255C66.5875 59.2675 65.7725 60.805 65.7725 62.8725C65.7725 65.835 67.6275 67.3175 71.34 67.3175C73.9975 67.3175 76.1225 66.6175 77.715 65.2175C79.3075 63.815 80.1025 61.955 80.1025 59.635V56.465V56.4625ZM118.842 34.5525C123.583 34.5525 127.295 36.35 129.977 39.945C132.66 43.54 134 48.465 134 54.725C134 61.1675 132.618 66.16 129.85 69.695C127.088 73.2325 123.323 75 118.558 75C113.84 75 110.14 73.3375 107.457 70.01H106.702L104.872 74.3025H96.5V20H107.455V32.6325C107.455 34.2375 107.312 36.8075 107.025 40.345H107.455C110.018 36.4825 113.812 34.5525 118.842 34.5525ZM115.322 43.0675C112.615 43.0675 110.64 43.8775 109.395 45.4925C108.15 47.11 107.503 49.78 107.455 53.5025V54.6525C107.455 58.8425 108.095 61.8425 109.378 63.6575C110.658 65.4725 112.688 66.38 115.465 66.38C117.715 66.38 119.507 65.375 120.835 63.3625C122.165 61.35 122.83 58.4225 122.83 54.585C122.83 50.745 122.158 47.8675 120.818 45.9475C119.478 44.0275 117.643 43.0675 115.322 43.0675ZM157.398 75C150.845 75 145.723 73.285 142.035 69.8575C138.345 66.43 136.5 61.575 136.5 55.2925C136.5 48.8275 138.205 43.83 141.615 40.2975C145.025 36.765 149.74 35 155.76 35C161.51 35 165.99 36.5525 169.195 39.66C172.397 42.765 174 47.0575 174 52.5325V57.64H147.75C147.872 60.6325 148.805 62.965 150.552 64.645C152.302 66.325 154.753 67.165 157.908 67.165C160.357 67.165 162.678 66.925 164.863 66.44C167.216 65.9002 169.509 65.1255 171.708 64.1275V72.2725C169.765 73.195 167.69 73.8775 165.482 74.3275C163.272 74.7775 160.577 75 157.398 75ZM155.833 42.49C153.478 42.49 151.632 43.1975 150.298 44.6125C148.963 46.0275 148.198 48.035 148.005 50.635H163.587C163.537 48.035 162.822 46.0275 161.438 44.61C160.055 43.1975 158.188 42.49 155.833 42.49ZM216.5 54.9475C216.5 61.23 214.73 66.1425 211.188 69.685C207.645 73.2275 202.713 75 196.388 75C192.428 75 188.938 74.19 185.91 72.5675C182.933 70.9946 180.501 68.5579 178.935 65.5775C177.31 62.54 176.5 59 176.5 54.95C176.5 48.6475 178.26 43.745 181.775 40.25C185.298 36.745 190.242 35 196.612 35C200.575 35 204.068 35.805 207.092 37.415C210.064 38.9712 212.495 41.3895 214.068 44.3525C215.693 47.3675 216.5 50.8975 216.5 54.9475ZM187.975 54.9475C187.975 58.7675 188.647 61.655 189.987 63.61C191.327 65.5675 193.512 66.545 196.538 66.545C199.538 66.545 201.698 65.57 203.013 63.6275C204.33 61.685 204.987 58.79 204.987 54.9475C204.987 51.13 204.322 48.265 202.995 46.355C201.665 44.445 199.49 43.49 196.462 43.49C193.462 43.49 191.298 44.44 189.967 46.3375C188.643 48.2375 187.975 51.105 187.975 54.9475Z" fill="#4D4D4D"></path></svg> 