<?xml version="1.0" encoding="UTF-8"?> <svg xmlns="http://www.w3.org/2000/svg" width="326" height="78" viewBox="0 0 326 78" fill="none"><path d="M234.675 30.8157C227.728 30.8157 222.132 36.4122 222.132 43.3595C222.132 50.3069 227.728 55.9034 234.675 55.9034C241.623 55.9034 247.219 50.3069 247.219 43.3595C247.219 36.4122 241.623 30.8157 234.675 30.8157ZM234.675 34.9648C239.307 34.9648 243.07 38.728 243.07 43.3595C243.07 47.9911 239.307 51.7543 234.675 51.7543C230.044 51.7543 226.281 47.9911 226.281 43.3595C226.281 38.6315 230.044 34.9648 234.675 34.9648ZM151.114 47.8946L138.281 31.2981H134.325V55.3245H138.474V38.2455L151.693 55.3245H155.263V31.2981H151.114V47.8946ZM165.588 45.0964H177.649V41.3332H165.588V35.0613H179.193V31.2981H161.439V55.3245H179.386V51.5613H165.588V45.0964ZM204.377 51.0788H197.912V30.8157H204.377C210.263 30.8157 213.64 35.6402 213.64 41.1402C213.544 46.4473 209.974 51.0788 204.377 51.0788ZM204.281 26.5701H189.614L191.447 30.8157H193.763V55.3245H204.377C208.237 55.3245 210.939 54.3595 213.544 51.4648C216.246 48.6666 217.789 44.7104 217.789 40.7543C217.789 33.035 212.096 26.5701 204.281 26.5701ZM264.202 42.5876L256.868 31.2981H252.333V55.3245H256.482V38.149L264.009 49.342H264.202L271.728 38.0525V55.3245H275.974V31.2981H271.439L264.202 42.5876ZM285.333 51.5613V45.0964H297.298V41.3332H285.333V35.0613H298.842V31.2981H281.088V55.3245H299.035V51.5613H285.333ZM114.64 26.6666C106.535 26.6666 99.9736 33.1315 99.9736 41.2367C99.9736 49.2455 106.535 55.8069 114.64 55.8069C122.746 55.8069 129.307 49.342 129.307 41.2367C129.307 33.1315 122.746 26.6666 114.64 26.6666ZM114.64 30.8157C120.43 30.8157 125.061 35.4473 125.061 41.1402C125.061 46.8332 120.333 51.4648 114.64 51.4648C108.851 51.4648 104.219 46.8332 104.219 41.1402C104.219 35.4473 108.851 30.8157 114.64 30.8157Z" fill="#BFBFBF"></path><path d="M54.6228 12C38.5087 12 25.4824 25.0263 25.4824 41.1404V41.7193C25.6754 49.5351 28.8596 56.5789 34.0701 61.693L39.9561 55.807C36.5789 52.4298 34.3596 47.8947 33.9737 42.8772C33.8772 42.2982 33.8772 41.7193 33.8772 41.0439C33.8772 29.5614 43.2368 20.2018 54.7193 20.2018C66.2017 20.2018 75.5614 29.4649 75.5614 41.0439C75.5614 41.6228 75.5614 42.2982 75.4649 42.8772C75.0789 47.8947 72.8596 52.4298 69.4824 55.807L75.3684 61.693C80.4824 56.5789 83.7631 49.5351 83.8596 41.7193V41.1404C83.7631 25.0263 70.7368 12 54.6228 12ZM54.6228 46.1579C53.2719 46.1579 52.0175 45.5789 51.0526 44.7105C50.1842 43.8421 49.6052 42.5877 49.6052 41.1404C49.6052 38.3421 51.8245 36.1228 54.6228 36.1228C57.421 36.1228 59.6403 38.3421 59.6403 41.1404C59.6403 42.4912 59.0614 43.7456 58.193 44.7105C57.228 45.5789 55.9737 46.1579 54.6228 46.1579ZM54.6228 28.5965C47.7719 28.5965 42.1754 34.193 42.1754 41.0439C42.1754 44.5175 43.5263 47.6053 45.8421 49.8246L46.0351 50.0175C49.3158 53.2982 51.8245 57.2544 53.2719 61.693C53.6579 63.0439 54.0438 64.2982 54.2368 65.7456V65.8421C54.2368 66.0351 54.4298 66.1316 54.6228 66.1316C54.8158 66.1316 55.0087 66.0351 55.0087 65.8421V65.7456C55.2017 64.3947 55.5877 63.0439 55.9736 61.693C57.421 57.2544 59.9298 53.2018 63.2105 50.0175L63.4035 49.8246C65.6228 47.6053 67.0701 44.4211 67.0701 41.0439C67.1666 34.193 61.5701 28.5965 54.6228 28.5965Z" fill="#BFBFBF"></path></svg> 