<?xml version="1.0" encoding="UTF-8"?> <svg xmlns="http://www.w3.org/2000/svg" width="222" height="87" viewBox="0 0 222 87" fill="none"><path fill-rule="evenodd" clip-rule="evenodd" d="M36.9394 62.2456C36.9394 63.1049 36.8225 63.8524 36.5888 64.5021C36.3775 65.105 36.0063 65.6369 35.5162 66.039C35.0365 66.4519 34.4262 66.6751 33.7975 66.6677C33.3952 66.6695 32.9985 66.5718 32.6416 66.3832C32.2847 66.1946 31.9783 65.9206 31.7488 65.5849L31.6388 66.1438C31.6181 66.2556 31.5769 66.3743 31.515 66.5071H30.1331C30.2019 66.3045 30.2569 66.0739 30.2912 65.7945C30.3256 65.522 30.3394 65.1169 30.3394 64.5789V56.7058C30.3394 56.2448 30.3188 55.8605 30.2706 55.5462C30.2379 55.27 30.1757 54.9983 30.085 54.7358L31.6388 54.4075C31.7478 54.9923 31.8008 55.5866 31.7969 56.1819V58.606C31.7831 58.7737 31.7763 58.8854 31.7488 58.9413L31.7969 58.9762C32.0761 58.6732 32.4129 58.4308 32.7869 58.2637C33.1342 58.1218 33.5056 58.0506 33.88 58.0541C34.8425 58.0541 35.5988 58.4244 36.135 59.1649C36.6713 59.9054 36.9394 60.9323 36.9394 62.2456ZM35.2894 62.2107C35.2894 61.9383 35.2894 61.7077 35.2756 61.5121C35.2675 61.3412 35.2492 61.1708 35.2206 61.0022C35.1968 60.8668 35.1623 60.7337 35.1175 60.604C35.0718 60.4753 35.019 60.3494 34.9594 60.2267C34.8333 59.9573 34.6315 59.7318 34.3795 59.5789C34.1274 59.426 33.8363 59.3524 33.5431 59.3675C33.3025 59.3675 33.0825 59.4024 32.8969 59.4792C32.5623 59.6101 32.258 59.8099 32.0031 60.066L31.7969 60.3245V64.5021C31.9894 64.7326 32.2369 64.9352 32.5394 65.1099C32.8419 65.2845 33.165 65.3683 33.5156 65.3683C33.7906 65.3683 34.0519 65.2985 34.2925 65.1727C34.5331 65.04 34.7188 64.8584 34.8425 64.6278C34.98 64.3973 35.0831 64.0969 35.1656 63.7197C35.2481 63.3564 35.2894 62.8464 35.2894 62.2107ZM42.4875 66.7655L45.265 58.2707H43.6494L42.2331 63.1329C42.0196 63.8029 41.8406 64.4838 41.6969 65.1727H41.6006C41.5254 64.8432 41.4452 64.5148 41.36 64.1877L41.14 63.2307L39.6137 58.0611L38.1425 58.4034L39.9025 63.8105C40.0606 64.2995 40.205 64.7606 40.3219 65.1797C40.4456 65.5989 40.5556 66.06 40.6656 66.556L41.2362 66.4721C41.1194 66.8913 41.0163 67.2196 40.92 67.4641C40.7393 67.9657 40.401 68.3929 39.9575 68.6797C39.7261 68.8361 39.4705 68.9518 39.2013 69.022L39.6619 70C40.2037 69.8944 40.7115 69.6545 41.14 69.3014C41.415 69.0569 41.6625 68.7216 41.8825 68.2954C42.1234 67.8024 42.3257 67.2909 42.4875 66.7655ZM57.3925 62.2456C57.3925 62.8953 57.3237 63.4822 57.2 64.0201C57.0625 64.558 56.87 65.026 56.6019 65.4172C56.3525 65.7985 56.018 66.1144 55.6256 66.3394C55.0746 66.6199 54.4516 66.7201 53.8422 66.6263C53.2329 66.5325 52.667 66.2492 52.2225 65.8154C52.2455 65.9609 52.2547 66.1083 52.25 66.2556V69.6297L50.8269 69.9721V60.2896C50.8269 59.8006 50.8063 59.4024 50.7788 59.102C50.748 58.8207 50.7044 58.5409 50.6481 58.2637L52.0644 58.0192C52.0977 58.1569 52.1207 58.297 52.1331 58.4383C52.1469 58.599 52.1606 58.8575 52.1606 59.2068C52.4381 58.8451 52.7901 58.5494 53.1919 58.3405C53.5708 58.1532 53.9873 58.0575 54.4087 58.0611C54.8152 58.05 55.2183 58.1382 55.5844 58.318C55.9504 58.4979 56.2687 58.7644 56.5125 59.095C56.7875 59.4443 56.9937 59.8774 57.1587 60.4084C57.3169 60.9323 57.3925 61.5471 57.3925 62.2456ZM55.825 62.4273C55.825 61.4493 55.7012 60.6948 55.4606 60.1499C55.2131 59.612 54.78 59.3395 54.1544 59.3395C53.4463 59.3395 52.8137 59.6748 52.25 60.3595V64.551C52.4975 64.8234 52.7656 65.04 53.0613 65.2077C53.3569 65.3683 53.6525 65.4522 53.955 65.4522C54.5944 65.4522 55.0688 65.2007 55.3713 64.7047C55.6738 64.2017 55.825 63.4472 55.825 62.4273ZM65.1887 66.8494C64.9334 66.7477 64.7044 66.5878 64.5196 66.3818C64.3349 66.1759 64.1992 65.9295 64.1231 65.6618C64.0457 65.7574 63.9655 65.8505 63.8825 65.9412C63.7488 66.0805 63.5987 66.2025 63.4356 66.3045C62.9697 66.6056 62.4271 66.7611 61.875 66.7516C61.1938 66.7912 60.5224 66.5721 59.9913 66.1368C59.5306 65.7176 59.3038 65.1238 59.3038 64.3344C59.3038 63.3704 59.6475 62.6438 60.3487 62.1478C61.05 61.6518 62.0469 61.4073 63.3462 61.4073H63.745C63.7985 61.4038 63.8523 61.4109 63.9031 61.4283V60.8834C63.9031 60.6389 63.8894 60.4223 63.8619 60.2197C63.8426 60.0377 63.7864 59.8617 63.6969 59.7028C63.61 59.5549 63.4803 59.4378 63.3256 59.3675C63.1159 59.2832 62.8909 59.2451 62.6656 59.2557C62.2394 59.2557 61.8131 59.3465 61.3731 59.5351C60.9624 59.7036 60.5743 59.9243 60.2181 60.1918L59.5513 59.109C59.7612 58.9908 59.972 58.8744 60.1838 58.7597C60.7036 58.4761 61.2586 58.2646 61.8338 58.131C62.1795 58.0558 62.5321 58.0184 62.8856 58.0192C63.47 58.0192 63.9581 58.131 64.3638 58.3475C64.7625 58.5711 65.0375 58.8994 65.1887 59.3395C65.2575 59.5142 65.2919 59.6958 65.3194 59.8984C65.3643 60.3814 65.3712 60.8673 65.34 61.3515C65.3319 61.8826 65.3159 62.4136 65.2919 62.9442C65.2852 63.4868 65.2875 64.0295 65.2988 64.572C65.3125 64.7815 65.34 64.9562 65.3812 65.1099C65.4225 65.2636 65.4844 65.3893 65.5669 65.5081C65.6563 65.6268 65.7731 65.7316 65.9381 65.8294L65.1887 66.8494ZM63.8756 62.4622L63.6006 62.4343C63.532 62.4291 63.4632 62.4268 63.3944 62.4273C62.8444 62.4273 62.4044 62.4762 62.0606 62.581C61.7237 62.6858 61.4763 62.8325 61.3181 63.0211C61.1669 63.2027 61.0638 63.3844 60.995 63.552C60.9331 63.7267 60.9056 63.9432 60.9056 64.2227C60.9056 64.6767 61.0087 65.033 61.2287 65.2775C61.4487 65.529 61.7581 65.6478 62.1569 65.6478C62.5006 65.6478 62.81 65.55 63.1125 65.3544C63.4111 65.155 63.6567 64.8838 63.8275 64.565L63.8688 62.4622H63.8756ZM71.8506 59.598L72.3663 58.089C72.207 58.0334 72.0397 58.0051 71.8713 58.0052C71.06 58.0052 70.3381 58.4802 69.7125 59.4373V59.2906C69.7125 59.081 69.685 58.8575 69.6369 58.613C69.5956 58.4081 69.531 58.2089 69.4444 58.0192L68.0281 58.3964C68.2735 59.0533 68.3767 59.7562 68.3306 60.4573V66.5071H69.795V61.1978C69.795 60.9672 69.8363 60.7507 69.9325 60.5481C70.015 60.3385 70.1388 60.1639 70.2831 60.0102C70.435 59.8542 70.616 59.7306 70.8155 59.6466C71.015 59.5626 71.2291 59.52 71.445 59.5211C71.5275 59.5211 71.5963 59.5211 71.6581 59.5421L71.8575 59.598H71.8506ZM75.1094 62.7067V62.9023C75.1094 63.6289 75.2194 64.1738 75.4462 64.551C75.6525 64.8793 75.9206 65.1238 76.23 65.2775C76.5529 65.4385 76.9085 65.5198 77.2681 65.515C77.9969 65.515 78.65 65.2566 79.2206 64.7256L79.7775 65.6338C79.0254 66.3259 78.042 66.7007 77.0275 66.6817C76.4775 66.6817 75.9894 66.5839 75.5494 66.3813C75.1159 66.1828 74.7327 65.8866 74.4288 65.515C74.1057 65.1135 73.865 64.6503 73.7206 64.1528C73.5489 63.561 73.4654 62.9464 73.4731 62.3295C73.4731 61.6169 73.5487 61.0091 73.7 60.5131C73.8494 60.0093 74.0972 59.5412 74.4288 59.1369C74.714 58.7729 75.0786 58.4811 75.4938 58.2847C75.909 58.0883 76.3634 57.9926 76.8212 58.0052C77.4839 57.9784 78.1351 58.1858 78.6642 58.5921C79.1932 58.9985 79.5672 59.5786 79.7225 60.2337C79.7981 60.5131 79.86 60.8345 79.8944 61.1978C79.9356 61.554 79.9494 61.9662 79.9494 62.4413V62.7067H75.1094ZM78.43 61.589C78.43 60.7646 78.265 60.1499 77.935 59.7307C77.803 59.5623 77.6394 59.4223 77.4538 59.3186C77.2511 59.2081 77.0237 59.1527 76.7937 59.1579C76.2231 59.1579 75.8038 59.3675 75.5288 59.8076C75.2351 60.352 75.097 60.969 75.13 61.589H78.43ZM86.8106 66.5071H88.2544V60.2686C88.2544 59.8704 88.1856 59.5281 88.0619 59.2277C87.911 58.8779 87.6562 58.5848 87.3331 58.3894C86.9913 58.1717 86.5953 58.0578 86.1919 58.0611C85.6719 58.0691 85.1627 58.2135 84.7138 58.4802C84.5492 58.5737 84.3928 58.6812 84.2463 58.8016L83.6825 59.2836C83.6825 59.0321 83.6619 58.8016 83.6138 58.606C83.5693 58.4002 83.5 58.2008 83.4075 58.0122L82.0325 58.4104L82.17 58.8295C82.2531 59.1254 82.3016 59.4303 82.3144 59.7377C82.3281 59.9124 82.335 60.1219 82.335 60.3664V66.4931H83.7788V60.4084C84.0606 60.108 84.3906 59.8635 84.755 59.6609C85.0548 59.4765 85.395 59.3709 85.745 59.3535C86.13 59.3535 86.3981 59.4653 86.5563 59.6818C86.6525 59.8146 86.7144 59.9613 86.7556 60.1359C86.79 60.3036 86.8106 60.576 86.8106 60.9463V66.5001V66.5071ZM94.27 59.3395L94.6687 58.2707H92.73C92.7365 57.6178 92.7664 56.9653 92.8194 56.3146C92.8334 56.1442 92.8517 55.9741 92.8744 55.8046L91.3619 56.1679C91.3206 56.4823 91.2931 56.8316 91.2862 57.2158C91.277 57.565 91.2725 57.9143 91.2725 58.2637H90.3169V59.3395H91.2725V64.6488C91.2725 64.9422 91.2863 65.1867 91.3206 65.3683C91.3423 65.5245 91.3839 65.6772 91.4444 65.8224C91.4994 65.9342 91.5612 66.032 91.63 66.1019L91.8569 66.3254C91.9875 66.4442 92.1731 66.542 92.4275 66.6188C92.6819 66.6957 92.9431 66.7376 93.2044 66.7376C93.7062 66.7402 94.2013 66.6205 94.6481 66.3883L94.4762 65.4661C94.2446 65.5788 93.9906 65.6362 93.7337 65.6338C93.3281 65.6338 93.0531 65.543 92.9087 65.3544C92.7712 65.1658 92.7025 64.8165 92.7025 64.3065V59.3395H94.27ZM102.108 63.9712C102.108 63.4123 101.949 62.9373 101.626 62.5321C101.205 62.0784 100.65 61.7767 100.045 61.6728L99.0138 61.4283C98.6875 61.3753 98.3826 61.23 98.1337 61.0091C97.9647 60.818 97.8759 60.5673 97.8862 60.3106C97.8862 59.9333 98.0169 59.6399 98.2644 59.4094C98.5119 59.1858 98.8487 59.074 99.2681 59.074C99.5912 59.074 99.9006 59.1299 100.21 59.2277C100.512 59.3325 100.849 59.4792 101.221 59.6679L101.716 58.599C101.359 58.3881 100.978 58.2238 100.581 58.11C100.134 57.9815 99.6711 57.918 99.2063 57.9214C98.7731 57.9214 98.3812 57.9912 98.0375 58.11C97.68 58.2357 97.3775 58.4174 97.13 58.6409C96.8756 58.8645 96.6762 59.1299 96.5387 59.4513C96.4012 59.7726 96.3325 60.1149 96.3325 60.4852C96.3325 61.7427 96.9788 62.5111 98.2713 62.7696L99.2337 62.9722C99.715 63.056 100.059 63.2097 100.265 63.4193C100.471 63.6358 100.574 63.9153 100.574 64.2716C100.574 64.6767 100.437 64.9981 100.162 65.2356C99.8938 65.4801 99.5431 65.5989 99.0962 65.5989C98.6432 65.5981 98.1939 65.5153 97.7694 65.3544C97.3446 65.1976 96.933 65.006 96.5387 64.7815L96.0163 65.8643C96.4798 66.1439 96.9765 66.3622 97.4944 66.514C97.9789 66.6591 98.4811 66.7344 98.9863 66.7376C99.44 66.7376 99.8594 66.6677 100.244 66.535C100.61 66.4188 100.949 66.2287 101.241 65.9761C101.516 65.7246 101.723 65.4312 101.881 65.0959C102.038 64.7452 102.118 64.3636 102.114 63.9782L102.108 63.9712ZM111.781 55.9374L112.269 54.9454C112.022 54.7912 111.753 54.678 111.471 54.6101C111.167 54.5381 110.855 54.5029 110.543 54.5053C109.938 54.5053 109.457 54.638 109.099 54.8965C108.886 55.0502 108.687 55.2947 108.494 55.623C108.302 55.9514 108.206 56.3915 108.206 56.9503V57.614C108.209 57.8356 108.221 58.0569 108.24 58.2777H107.463V59.3465H108.219V66.5071H109.697V59.3325H111.416L111.794 58.2707H109.684V56.9364C109.684 56.5172 109.773 56.1959 109.959 55.9653C110.144 55.7348 110.406 55.616 110.749 55.616C110.928 55.616 111.093 55.651 111.265 55.7138C111.43 55.7697 111.602 55.8466 111.781 55.9374ZM119.57 62.4622C119.57 63.1189 119.494 63.7127 119.329 64.2366C119.164 64.7606 118.931 65.2147 118.628 65.5779C118.326 65.9412 117.961 66.2276 117.528 66.4302C117.084 66.6371 116.6 66.742 116.112 66.7376C115.616 66.7437 115.126 66.6388 114.675 66.4302C114.25 66.23 113.878 65.9308 113.589 65.557C113.276 65.1493 113.042 64.6845 112.901 64.1877C112.737 63.5993 112.659 62.9898 112.668 62.3784C112.668 61.7077 112.75 61.1069 112.908 60.576C113.066 60.0451 113.293 59.598 113.589 59.2138C113.876 58.8429 114.243 58.5441 114.661 58.3405C115.074 58.1379 115.555 58.0401 116.077 58.0401C116.662 58.0401 117.178 58.1519 117.611 58.3894C118.042 58.6095 118.419 58.9274 118.711 59.3186C118.999 59.7168 119.213 60.1778 119.357 60.7157C119.501 61.2537 119.57 61.8335 119.57 62.4622ZM117.941 62.5321C117.941 61.8894 117.893 61.3584 117.81 60.9253C117.728 60.5062 117.604 60.1639 117.439 59.9124C117.295 59.6784 117.091 59.4896 116.848 59.3675C116.606 59.2561 116.343 59.2011 116.077 59.2068C115.445 59.2068 114.984 59.4443 114.702 59.9193C114.427 60.3944 114.29 61.1628 114.29 62.2107C114.29 62.8395 114.324 63.3634 114.407 63.7895C114.483 64.2157 114.599 64.558 114.751 64.8304C114.886 65.0716 115.09 65.2662 115.335 65.3893C115.569 65.5081 115.837 65.5639 116.146 65.5639C116.696 65.5639 117.129 65.3264 117.452 64.8514C117.776 64.3763 117.934 63.5939 117.934 62.5251L117.941 62.5321ZM125.558 59.598L126.067 58.089C125.908 58.0334 125.74 58.0051 125.572 58.0052C124.761 58.0052 124.039 58.4802 123.413 59.4373V59.2906C123.413 59.081 123.386 58.8575 123.337 58.613C123.296 58.4081 123.232 58.2088 123.145 58.0192L121.729 58.3964C121.974 59.0533 122.077 59.7562 122.031 60.4573V66.5071H123.496V61.1978C123.496 60.9672 123.537 60.7507 123.633 60.5481C123.767 60.206 124.012 59.9202 124.326 59.7375C124.641 59.5548 125.007 59.4859 125.366 59.5421L125.558 59.598ZM138.194 62.2526C138.194 62.8953 138.126 63.4822 137.988 64.0201C137.88 64.5197 137.679 64.9939 137.397 65.4172C137.147 65.7983 136.813 66.1142 136.421 66.3394C135.87 66.6199 135.247 66.7201 134.637 66.6263C134.028 66.5325 133.462 66.2492 133.017 65.8154C133.043 65.9607 133.054 66.1081 133.052 66.2556V69.6297L131.622 69.9721V60.2896C131.622 59.8006 131.601 59.4024 131.574 59.102C131.543 58.8206 131.5 58.5409 131.443 58.2637L132.859 58.0192C132.894 58.1449 132.914 58.2846 132.928 58.4383C132.949 58.599 132.956 58.8575 132.956 59.2068C133.235 58.8443 133.589 58.5485 133.994 58.3405C134.373 58.1534 134.789 58.0578 135.211 58.0611C135.617 58.0512 136.02 58.1398 136.386 58.3196C136.751 58.4994 137.07 58.7652 137.314 59.095C137.582 59.4443 137.796 59.8774 137.954 60.4084C138.123 61.0053 138.204 61.6245 138.194 62.2456V62.2526ZM136.62 62.4273C136.62 61.4493 136.503 60.6948 136.256 60.1499C136.015 59.612 135.582 59.3395 134.949 59.3395C134.248 59.3395 133.609 59.6748 133.052 60.3595V64.551C133.282 64.8144 133.554 65.0364 133.856 65.2077C134.152 65.3683 134.454 65.4522 134.75 65.4522C135.396 65.4522 135.864 65.2007 136.166 64.7047C136.469 64.2017 136.62 63.4472 136.62 62.4273ZM145.984 66.8494C145.73 66.7469 145.502 66.5865 145.319 66.3806C145.135 66.1747 145 65.9288 144.925 65.6618C144.845 65.7575 144.763 65.8507 144.678 65.9412C144.544 66.0805 144.394 66.2025 144.231 66.3045C144.026 66.4355 143.807 66.541 143.577 66.6188C143.284 66.7144 142.978 66.7592 142.67 66.7516C141.989 66.7912 141.317 66.5721 140.786 66.1368C140.326 65.7176 140.099 65.1238 140.099 64.3344C140.099 63.3704 140.443 62.6438 141.144 62.1478C141.845 61.6518 142.842 61.4073 144.148 61.4073H144.54C144.595 61.4073 144.65 61.4073 144.698 61.4283V60.8834C144.701 60.6616 144.69 60.4399 144.664 60.2197C144.642 60.0372 144.584 59.8611 144.492 59.7028C144.405 59.5549 144.275 59.4378 144.121 59.3675C143.911 59.2832 143.686 59.2451 143.461 59.2557C143.041 59.2557 142.608 59.3465 142.168 59.5351C141.76 59.7044 141.374 59.9251 141.02 60.1918L140.353 59.109L140.979 58.7597C141.206 58.627 141.46 58.5082 141.735 58.4034C142.025 58.2863 142.324 58.1928 142.629 58.124C142.977 58.0507 143.332 58.0155 143.688 58.0192C144.265 58.0192 144.76 58.131 145.159 58.3475C145.551 58.5552 145.848 58.9116 145.984 59.3395C146.052 59.5142 146.094 59.6958 146.114 59.8984C146.135 60.094 146.149 60.3874 146.149 60.7856C146.148 61.2213 146.136 61.6569 146.114 62.092C146.091 62.6738 146.079 63.2561 146.08 63.8384C146.08 64.1249 146.087 64.3694 146.101 64.572C146.107 64.7815 146.135 64.9562 146.176 65.1099C146.263 65.4143 146.462 65.6725 146.733 65.8294L145.984 66.8494ZM144.671 62.4622L144.396 62.4343C144.327 62.4291 144.258 62.4268 144.189 62.4273C143.639 62.4273 143.199 62.4762 142.863 62.581C142.519 62.6858 142.271 62.8325 142.113 63.0211C141.981 63.1802 141.874 63.3593 141.797 63.552C141.728 63.7267 141.701 63.9432 141.701 64.2227C141.701 64.6767 141.811 65.033 142.024 65.2775C142.244 65.529 142.553 65.6478 142.952 65.6478C143.292 65.6491 143.625 65.5469 143.908 65.3544C144.206 65.1552 144.452 64.884 144.623 64.565L144.671 62.4622ZM152.652 59.598L153.161 58.089C153.004 58.0342 152.839 58.0058 152.673 58.0052C151.855 58.0052 151.133 58.4802 150.514 59.4373V59.2906C150.514 59.081 150.487 58.8575 150.432 58.613C150.391 58.4081 150.326 58.2088 150.239 58.0192L148.83 58.3964C148.926 58.6549 148.995 58.9343 149.05 59.2347C149.105 59.5421 149.132 59.9473 149.132 60.4573V66.5071H150.59V61.1978C150.595 60.7511 150.773 60.3244 151.085 60.0102C151.262 59.8278 151.478 59.6903 151.717 59.609C151.956 59.5277 152.211 59.5047 152.46 59.5421L152.652 59.598ZM155.911 62.7067V62.9023C155.911 63.6289 156.021 64.1738 156.241 64.551C156.447 64.8793 156.716 65.1238 157.025 65.2775C157.341 65.4382 157.685 65.515 158.07 65.515C158.799 65.515 159.445 65.2566 160.022 64.7256L160.572 65.6338C159.82 66.3259 158.837 66.7007 157.822 66.6817C157.272 66.6817 156.784 66.5839 156.344 66.3813C155.911 66.1828 155.528 65.8866 155.224 65.515C154.903 65.1127 154.665 64.6496 154.522 64.1528C154.35 63.5611 154.267 62.9464 154.275 62.3295C154.275 61.6169 154.344 61.0091 154.495 60.5131C154.645 60.0094 154.893 59.5414 155.224 59.1369C155.51 58.7719 155.875 58.4796 156.292 58.2832C156.708 58.0867 157.164 57.9916 157.623 58.0052C158.285 57.98 158.934 58.1882 159.462 58.5944C159.989 59.0006 160.362 59.5798 160.517 60.2337C160.6 60.5131 160.655 60.8345 160.696 61.1978C160.731 61.554 160.751 61.9662 160.751 62.4413V62.7067H155.911ZM159.225 61.589C159.225 60.7646 159.06 60.1499 158.737 59.7307C158.605 59.5623 158.441 59.4223 158.256 59.3186C158.051 59.2069 157.821 59.1515 157.589 59.1579C157.018 59.1579 156.599 59.3675 156.331 59.8076C156.056 60.2407 155.918 60.8345 155.918 61.589H159.225ZM167.613 66.5071H169.056V60.2686C169.056 59.8704 168.987 59.5281 168.864 59.2277C168.711 58.8771 168.453 58.584 168.128 58.3894C167.786 58.1721 167.39 58.0582 166.987 58.0611C166.746 58.0611 166.499 58.096 166.244 58.1659C165.986 58.231 165.738 58.3346 165.509 58.4733C165.344 58.5689 165.188 58.6788 165.041 58.8016L164.478 59.2836C164.478 59.0321 164.457 58.8016 164.416 58.606C164.37 58.4004 164.301 58.201 164.209 58.0122L162.834 58.4104L162.965 58.8295C163.051 59.1251 163.101 59.43 163.116 59.7377L163.13 60.3664V66.4931H164.574V60.4084C164.861 60.1114 165.19 59.8595 165.55 59.6609C165.85 59.4765 166.19 59.3709 166.54 59.3535C166.925 59.3535 167.193 59.4653 167.351 59.6818C167.447 59.8146 167.516 59.9613 167.558 60.1359C167.585 60.3036 167.606 60.576 167.606 60.9463V66.5001L167.613 66.5071ZM175.065 59.3395L175.464 58.2707H173.525C173.528 57.828 173.542 57.3854 173.566 56.9434C173.596 56.5634 173.63 56.1838 173.669 55.8046L172.157 56.1679C172.123 56.4823 172.088 56.8316 172.088 57.2158C172.077 57.565 172.07 57.9143 172.067 58.2637H171.112V59.3395H172.067V64.6488C172.067 64.9422 172.081 65.1867 172.116 65.3683C172.137 65.5245 172.179 65.6772 172.239 65.8224C172.294 65.9342 172.356 66.032 172.425 66.1019L172.652 66.3254C172.783 66.4442 172.968 66.542 173.223 66.6188C173.477 66.6957 173.738 66.7376 174.006 66.7376C174.508 66.7402 175.003 66.6205 175.45 66.3883L175.271 65.4661C175.04 65.5788 174.786 65.6362 174.529 65.6338C174.123 65.6338 173.855 65.543 173.704 65.3544C173.566 65.1658 173.498 64.8165 173.498 64.3065V59.3395H175.065ZM182.902 63.9712C182.902 63.4123 182.751 62.9373 182.421 62.5321C182.001 62.078 181.445 61.7762 180.84 61.6728L179.809 61.4283C179.485 61.374 179.183 61.2288 178.936 61.0091C178.766 60.8184 178.677 60.5674 178.688 60.3106C178.688 59.9333 178.812 59.6399 179.059 59.4094C179.307 59.1858 179.644 59.074 180.07 59.074C180.386 59.074 180.696 59.1299 181.005 59.2277C181.307 59.3325 181.651 59.4792 182.022 59.6679L182.511 58.599C182.154 58.388 181.773 58.2237 181.376 58.11C180.929 57.9814 180.466 57.9179 180.001 57.9214C179.568 57.9214 179.176 57.9912 178.832 58.11C178.482 58.2357 178.179 58.4174 177.925 58.6409C177.671 58.8645 177.471 59.1299 177.334 59.4513C177.196 59.7726 177.127 60.1149 177.127 60.4852C177.127 61.7427 177.774 62.5111 179.066 62.7696L180.036 62.9722C180.517 63.056 180.854 63.2097 181.06 63.4193C181.266 63.6358 181.369 63.9153 181.369 64.2716C181.369 64.6767 181.232 64.9981 180.964 65.2356C180.689 65.4801 180.338 65.5989 179.891 65.5989C179.438 65.5982 178.989 65.5154 178.564 65.3544C178.14 65.1976 177.728 65.006 177.334 64.7815L176.811 65.8643C177.275 66.1437 177.772 66.362 178.289 66.514C178.774 66.659 179.276 66.7343 179.781 66.7376C180.235 66.7376 180.654 66.6677 181.046 66.535C181.41 66.4178 181.746 66.2278 182.036 65.9761C182.311 65.7246 182.524 65.4312 182.676 65.0959C182.833 64.7452 182.913 64.3636 182.909 63.9782L182.902 63.9712ZM36.2313 47.1631V30.858C36.2313 30.1175 36.2175 29.5237 36.1625 29.0696C36.1385 28.7033 36.0452 28.3451 35.8875 28.0147C35.7585 27.7669 35.5426 27.5774 35.2825 27.4838C34.9587 27.3765 34.6192 27.3269 34.2788 27.3371C33.5807 27.365 32.8984 27.5562 32.285 27.896C31.5006 28.2915 30.7779 28.8023 30.14 29.4119V47.1561H24.2275V31.1025C24.2275 29.5656 24.09 28.5387 23.8081 28.0427C23.5262 27.5467 22.9488 27.2952 22.0825 27.2952C21.4913 27.2952 20.8312 27.4489 20.1025 27.7493C19.3186 28.0921 18.6015 28.5748 17.985 29.1744V47.1631H11.8869V29.9359C11.8869 28.1405 11.8181 26.7922 11.7012 25.884C11.6077 25.0963 11.3698 24.3334 11 23.6346L16.6375 22.0488C16.8506 22.3981 17.0156 22.7474 17.1187 23.0827C17.2287 23.418 17.3456 23.907 17.4694 24.5497C18.2236 23.7545 19.1282 23.1225 20.1289 22.6915C21.1296 22.2605 22.2056 22.0395 23.2925 22.0418C25.2519 22.0418 26.8675 22.7194 28.1325 24.0677C28.4488 24.3891 28.7513 24.7942 29.0675 25.2763C29.9772 24.2545 31.0659 23.4136 32.2781 22.7963C33.3899 22.2856 34.5988 22.0304 35.8187 22.0488C36.7469 22.0488 37.6337 22.1885 38.4725 22.454C39.3112 22.7334 39.9919 23.1036 40.5212 23.5857C41.1951 24.1518 41.6762 24.9194 41.8962 25.7792C42.0337 26.2473 42.1369 26.7922 42.1988 27.4209C42.2606 28.0497 42.2881 28.7832 42.2881 29.6145V47.1631H36.2381H36.2313ZM64.8794 47.8337C64.047 47.2268 63.4029 46.3905 63.0231 45.4236C62.2311 46.2045 61.2842 46.8047 60.2456 47.184C59.18 47.5892 58.0044 47.7848 56.7394 47.7848C55.1789 47.8141 53.6374 47.4339 52.2638 46.6811C51.0785 46.0795 50.1621 45.0434 49.6994 43.7819C49.4971 43.1564 49.3656 42.5095 49.3075 41.8538C49.219 40.8598 49.18 39.8619 49.1906 38.8638V22.4749H55.3369V37.7042C55.3369 38.8359 55.385 39.7021 55.4744 40.3169C55.5706 40.9247 55.6944 41.4067 55.8456 41.763C56.0038 42.1123 56.2925 42.3917 56.7119 42.6013C57.1244 42.8109 57.5712 42.9157 58.0387 42.9157C58.8156 42.9157 59.5925 42.6781 60.3625 42.1961C61.1325 41.7141 61.655 41.1692 61.9025 40.5544V22.4749H67.8631V40.75C67.8631 41.5883 67.9869 42.3987 68.2344 43.1811C68.4819 43.9705 68.8394 44.6482 69.3069 45.228L64.8794 47.8337ZM99.3438 47.1631V30.858C99.3438 30.1175 99.3231 29.5237 99.275 29.0696C99.2514 28.7032 99.158 28.345 99 28.0147C98.871 27.7669 98.6551 27.5774 98.395 27.4838C98.0711 27.3771 97.7316 27.3274 97.3913 27.3371C96.6908 27.3639 96.0061 27.5552 95.3906 27.896C94.6062 28.2914 93.8834 28.8022 93.2456 29.4119V47.1561H87.3331V31.1025C87.3331 29.5656 87.1956 28.5387 86.9206 28.0427C86.6319 27.5467 86.0612 27.2952 85.195 27.2952C84.6037 27.2952 83.9438 27.4489 83.215 27.7493C82.4311 28.092 81.7139 28.5746 81.0975 29.1744V47.1631H74.9925V29.9359C74.9925 28.1405 74.9306 26.7922 74.8069 25.884C74.7171 25.092 74.4816 24.3242 74.1125 23.6206L79.75 22.0348C79.9563 22.3841 80.1212 22.7334 80.2312 23.0687C80.3412 23.404 80.4581 23.8931 80.5819 24.5358C81.3361 23.7406 82.2407 23.1085 83.2414 22.6775C84.2421 22.2465 85.3182 22.0256 86.405 22.0278C88.3575 22.0278 89.9731 22.7054 91.245 24.0537C91.5544 24.3751 91.8637 24.7803 92.1731 25.2623C93.0851 24.2401 94.1761 23.3991 95.3906 22.7823C96.5003 22.2727 97.7068 22.0175 98.9244 22.0348C99.8594 22.0348 100.746 22.1745 101.585 22.44C102.424 22.7194 103.098 23.0897 103.634 23.5717C103.978 23.8651 104.252 24.1865 104.466 24.5358C104.686 24.892 104.864 25.3042 105.002 25.7653C105.139 26.2333 105.242 26.7782 105.304 27.407C105.373 28.0357 105.401 28.7692 105.401 29.6005V47.1491H99.3506L99.3438 47.1631ZM130.274 39.3529C130.274 40.6383 130.027 41.7979 129.525 42.8458C129.034 43.8836 128.331 44.8029 127.462 45.5424C126.511 46.334 125.419 46.9318 124.245 47.3028C122.987 47.722 121.598 47.9315 120.079 47.9315C117.157 47.9315 113.946 46.9815 110.44 45.0883L112.674 40.3588C113.214 40.6917 113.764 41.0063 114.324 41.3019C114.964 41.6372 115.631 41.9446 116.325 42.2171C117.026 42.4965 117.741 42.7201 118.47 42.8947C119.199 43.0694 119.907 43.1602 120.587 43.1602C121.488 43.1602 122.237 42.8947 122.842 42.3638C123.134 42.1217 123.368 41.8155 123.527 41.4682C123.685 41.1208 123.764 40.7415 123.757 40.3588C123.757 39.5205 123.461 38.8778 122.863 38.4028C122.279 37.9417 121.351 37.5784 120.079 37.3269L117.281 36.796C116.412 36.6116 115.579 36.2861 114.812 35.832C114.089 35.4419 113.443 34.9183 112.908 34.2881C112.445 33.6869 112.104 32.9983 111.904 32.2622C111.677 31.4797 111.561 30.668 111.561 29.852C111.561 28.6644 111.767 27.5676 112.207 26.5687C112.63 25.5885 113.265 24.7172 114.063 24.0188C114.919 23.2826 115.91 22.7248 116.978 22.3771C118.112 21.9929 119.377 21.7973 120.773 21.7973C122.698 21.7973 124.327 22.0488 125.661 22.5448C126.9 23.0023 128.114 23.527 129.298 24.1166L127.249 28.4479C126.248 27.8844 125.193 27.4256 124.101 27.0786C123.217 26.8095 122.3 26.6707 121.378 26.6665C120.599 26.6297 119.829 26.8584 119.192 27.3161C118.922 27.5182 118.704 27.7841 118.558 28.0908C118.412 28.3976 118.342 28.736 118.353 29.0766C118.353 29.7193 118.58 30.2293 119.027 30.5995C119.481 30.9698 120.244 31.2981 121.33 31.5845L124.217 32.353C124.967 32.5486 125.586 32.7512 126.081 32.9608C126.886 33.2938 127.628 33.7666 128.274 34.3579C128.935 34.9989 129.454 35.7747 129.799 36.6344C130.144 37.494 130.306 38.4181 130.274 39.3459V39.3529ZM148.211 47.1631V31.1025C148.211 29.6913 148.06 28.7273 147.764 28.2383C147.469 27.7353 146.919 27.4908 146.114 27.4908C145.496 27.4908 144.794 27.6864 144.017 28.0916C143.203 28.5215 142.451 29.0647 141.783 29.7053V47.1631H135.541V29.2722C135.541 28.2103 135.472 27.1904 135.334 26.2124C135.206 25.2864 134.994 24.3744 134.702 23.4879L140.25 21.8462C140.808 22.7787 141.116 23.8431 141.144 24.934C141.577 24.6027 142.017 24.2812 142.464 23.9699C142.883 23.6765 143.357 23.3901 143.887 23.1036C144.536 22.7389 145.233 22.4707 145.956 22.3073C146.682 22.1344 147.425 22.0454 148.17 22.0418C149.504 22.0418 150.7 22.3701 151.752 23.0268C152.743 23.6065 153.502 24.5213 153.897 25.6116C154.206 26.4778 154.364 27.6515 154.364 29.1255V47.1631H148.218H148.211ZM166.842 36.8449V37.0335C166.842 38.9616 167.276 40.4427 168.149 41.4696C169.015 42.4965 170.259 43.0135 171.868 43.0135C173.979 43.0135 175.993 42.1961 177.918 40.5544L180.345 44.4106C177.853 46.6139 174.663 47.8294 171.359 47.8337C169.647 47.8337 168.101 47.5264 166.705 46.9256C165.345 46.3406 164.129 45.4581 163.144 44.3408C162.128 43.1675 161.358 41.7959 160.882 40.3099C160.336 38.6149 160.069 36.8399 160.091 35.0565C160.091 32.842 160.325 30.9628 160.786 29.4189C161.245 27.8856 162.024 26.4706 163.068 25.2693C163.982 24.2039 165.11 23.3489 166.375 22.7613C167.585 22.2164 168.988 21.944 170.569 21.944C171.964 21.944 173.264 22.1675 174.481 22.6216C175.691 23.0687 176.681 23.7114 177.457 24.5427C178.583 25.7683 179.405 27.2481 179.857 28.86C180.419 30.9744 180.679 33.1603 180.627 35.3499V36.8449H166.842ZM174.151 31.829C174.151 30.8929 174.096 30.1524 173.993 29.6075C173.889 29.0771 173.691 28.5704 173.408 28.1125C173.117 27.6457 172.709 27.2659 172.225 27.0118C171.742 26.7578 171.201 26.6386 170.658 26.6665C169.482 26.6665 168.561 27.1275 167.908 28.0427C167.262 28.9578 166.932 30.2852 166.932 32.0246V32.1155H174.151V31.829ZM197.581 46.6322C195.979 47.3401 194.254 47.7153 192.507 47.7359C190.926 47.7359 189.551 47.4076 188.382 46.7509C187.315 46.2026 186.492 45.2641 186.079 44.1242C185.991 43.8854 185.913 43.643 185.845 43.3977C185.783 43.1625 185.747 42.9213 185.735 42.6781C185.685 41.8921 185.662 41.1046 185.666 40.3169V26.904H183.288V22.4749H185.659C185.659 21.2524 185.666 20.2045 185.687 19.3382C185.704 18.4361 185.773 17.5357 185.893 16.6417L192.225 15C192.096 16.21 192.004 17.4238 191.95 18.6397C191.881 19.946 191.854 21.2244 191.854 22.4749H196.653V26.911H191.854V39.304C191.854 40.8758 192.032 41.9306 192.39 42.4616C192.747 42.9925 193.469 43.258 194.556 43.258C194.862 43.2527 195.167 43.2105 195.463 43.1322C195.908 43.0192 196.35 42.8981 196.79 42.769L197.581 46.6322Z" fill="#4B4B4B" style="mix-blend-mode:luminosity"></path></svg> 